<?xml version="1.0" encoding="utf-8"?>
<!-- Generator: Adobe Illustrator 18.0.0, SVG Export Plug-In . SVG Version: 6.00 Build 0)  -->
<!DOCTYPE svg PUBLIC "-//W3C//DTD SVG 1.1//EN" "http://www.w3.org/Graphics/SVG/1.1/DTD/svg11.dtd">
<svg version="1.1" id="Layer_1" xmlns="http://www.w3.org/2000/svg" xmlns:xlink="http://www.w3.org/1999/xlink" x="0px" y="0px"
	 viewBox="0 0 750 784" enable-background="new 0 0 750 784" xml:space="preserve">
<path fill="none" stroke="#E2E2E2" stroke-width="13" stroke-miterlimit="10" d="M417.1,607c0,0,0.7-139.5,0-204.8
	s-41.6-32.9-38.6-148.1"/>
<path fill="none" stroke="#E2E2E2" stroke-width="13" stroke-miterlimit="10" d="M378.2,250.5c0,0,0.7-44.9,0-110.2
	S314.4,101.7,314.2,0"/>
<g>
	<g>
		<path fill="none" stroke="#FFFFFF" stroke-width="2" stroke-miterlimit="10" d="M378.2,250.5c0,0,0-0.9,0-2.5"/>
		<path fill="none" stroke="#FFFFFF" stroke-width="2" stroke-miterlimit="10" stroke-dasharray="5.0194,5.0194" d="M378.3,243
			c0.2-15.4,0.4-53.1-0.1-102.7c-0.7-64.2-61.7-39.5-64-135.3"/>
		<path fill="none" stroke="#FFFFFF" stroke-width="2" stroke-miterlimit="10" d="M314.2,2.5c0-0.8,0-1.7,0-2.5"/>
	</g>
</g>
<path fill="#BD9C2F" d="M134.2,240.2c2.6,0,5.3,0,7.9,0c0-0.6-0.6-0.8-1-0.9c0-3.6,0-7.2,0-10.9c0.7-0.3,1.3-1,1.3-1.8
	c0-3.1,0-6.3-0.1-9.4c0,0-0.1-0.4-0.6-0.6c0,0-1.4,0-2.5,0c0,0,0.1-1,0.3-2.6c0,0,0.3-1.9-1.5-1.9c-1.9,0-1.7,1.9-1.7,1.9
	c0.1,1.2,0.3,2.6,0.3,2.6c-1.1,0-2.5,0-2.5,0c-0.5,0.1-0.6,0.6-0.6,0.6c0,3.1-0.1,6.3-0.1,9.4c0,0.8,0.6,1.5,1.3,1.8
	c0,3.7,0,7.2,0,10.9c-0.4,0.1-1,0.4-1,0.9c2.6,0,5.3,0,7.9,0H134.2z"/>
<path fill="#BD9C2F" d="M147.5,240.2c2.6,0,5.3,0,7.9,0c0-0.6-0.6-0.8-1-0.9c0-3.6,0-7.2,0-10.9c0.7-0.3,1.3-1,1.3-1.8
	c0-3.1,0-6.3-0.1-9.4c0,0-0.1-0.4-0.6-0.6c0,0-1.4,0-2.5,0c0,0,0.1-1,0.3-2.6c0,0,0.3-1.9-1.5-1.9c-1.9,0-1.7,1.9-1.7,1.9
	c0.1,1.2,0.3,2.6,0.3,2.6c-1.1,0-2.5,0-2.5,0c-0.5,0.1-0.6,0.6-0.6,0.6c0,3.1-0.1,6.3-0.1,9.4c0,0.8,0.6,1.5,1.3,1.8
	c0,3.7,0,7.2,0,10.9c-0.4,0.1-1,0.4-1,0.9c2.6,0,5.3,0,7.9,0H147.5z"/>
<path fill="#BD9C2F" d="M536.3,240.2c2.6,0,5.3,0,7.9,0c0-0.6-0.6-0.8-1-0.9c0-3.6,0-7.2,0-10.9c0.7-0.3,1.3-1,1.3-1.8
	c0-3.1,0-6.3-0.1-9.4c0,0-0.1-0.4-0.6-0.6c0,0-1.4,0-2.5,0c0,0,0.1-1,0.3-2.6c0,0,0.3-1.9-1.5-1.9c-1.9,0-1.7,1.9-1.7,1.9
	c0.1,1.2,0.3,2.6,0.3,2.6c-1.1,0-2.5,0-2.5,0c-0.5,0.1-0.6,0.6-0.6,0.6c0,3.1-0.1,6.3-0.1,9.4c0,0.8,0.6,1.5,1.3,1.8
	c0,3.7,0,7.2,0,10.9c-0.4,0.1-1,0.4-1,0.9c2.6,0,5.3,0,7.9,0H536.3z"/>
<path fill="#BD9C2F" d="M549.6,240.2c2.6,0,5.3,0,7.9,0c0-0.6-0.6-0.8-1-0.9c0-3.6,0-7.2,0-10.9c0.7-0.3,1.3-1,1.3-1.8
	c0-3.1,0-6.3-0.1-9.4c0,0-0.1-0.4-0.6-0.6c0,0-1.4,0-2.5,0c0,0,0.1-1,0.3-2.6c0,0,0.3-1.9-1.5-1.9c-1.9,0-1.7,1.9-1.7,1.9
	c0.1,1.2,0.3,2.6,0.3,2.6c-1.1,0-2.5,0-2.5,0c-0.5,0.1-0.6,0.6-0.6,0.6c0,3.1-0.1,6.3-0.1,9.4c0,0.8,0.6,1.5,1.3,1.8
	c0,3.7,0,7.2,0,10.9c-0.4,0.1-1,0.4-1,0.9c2.6,0,5.3,0,7.9,0H549.6z"/>
<g>
	<text transform="matrix(1 0 0 1 121.0469 117.3855)" fill="#3A3A3A" font-family="Arial Narrow" font-size="12.5">Taxi and cab drivers</text>
</g>
<g>
	<text transform="matrix(1 0 0 1 272.38 117.3855)" fill="#3A3A3A" font-family="Arial Narrow" font-size="12.5">12,635€</text>
</g>
<g>
	<text transform="matrix(1 0 0 1 121.0469 134.6598)" fill="#3A3A3A" font-family="Arial Narrow" font-size="12.5">Van drivers</text>
</g>
<g>
	<text transform="matrix(1 0 0 1 272.38 134.6595)" fill="#3A3A3A" font-family="Arial Narrow" font-size="12.5">23,142€</text>
</g>
<g>
	<text transform="matrix(1 0 0 1 121.0469 151.9338)" fill="#3A3A3A" font-family="Arial Narrow" font-size="12.5">Large goods vehicle drivers</text>
</g>
<g>
	<text transform="matrix(1 0 0 1 272.38 151.9338)" fill="#3A3A3A" font-family="Arial Narrow" font-size="12.5">27,580€</text>
</g>
<g>
	<text transform="matrix(1 0 0 1 121.0469 169.2081)" fill="#3A3A3A" font-family="Arial Narrow" font-size="12.5">Bus and coach drivers</text>
</g>
<g>
	<text transform="matrix(1 0 0 1 272.38 169.2084)" fill="#3A3A3A" font-family="Arial Narrow" font-size="12.5">31,859€</text>
</g>
<g>
	<text transform="matrix(1 0 0 1 121.0469 186.4826)"><tspan x="0" y="0" fill="#3A3A3A" font-family="Arial Narrow" font-size="12.5">Postal workers, mail sorters, </tspan><tspan x="0" y="15" fill="#3A3A3A" font-family="Arial Narrow" font-size="12.5">messengers and couriers</tspan></text>
</g>
<g>
	<text transform="matrix(1 0 0 1 272.38 186.4826)" fill="#3A3A3A" font-family="Arial Narrow" font-size="12.5">38,724€</text>
</g>
<text transform="matrix(1 0 0 1 121.0469 96.9756)" fill="#BD9C2F" font-family="Arial Narrow" font-weight="700" font-size="16">TRANSPORT</text>
<g>
	<text transform="matrix(1 0 0 1 417.6034 117.1008)"><tspan x="0" y="0" fill="#3A3A3A" font-family="Arial Narrow" font-size="12.5">Sales and retail assistants, cashiers and </tspan><tspan x="0" y="15" fill="#3A3A3A" font-family="Arial Narrow" font-size="12.5">checkout operators (incl. Shelf fillers)</tspan></text>
</g>
<g>
	<text transform="matrix(1 0 0 1 611.8722 117.1008)" fill="#3A3A3A" font-family="Arial Narrow" font-size="12.5">16,818€</text>
</g>
<g>
	<text transform="matrix(1 0 0 1 417.6034 151.6506)" fill="#3A3A3A" font-family="Arial Narrow" font-size="12.5">Sales supervisors</text>
</g>
<g>
	<text transform="matrix(1 0 0 1 611.8722 151.2676)" fill="#3A3A3A" font-family="Arial Narrow" font-size="12.5">22,719€</text>
</g>
<g>
	<text transform="matrix(1 0 0 1 417.6034 169.2004)" fill="#3A3A3A" font-family="Arial Narrow" font-size="12.5">Shopkeepers and proprietors </text>
</g>
<g>
	<text transform="matrix(1 0 0 1 611.8722 169.2004)" fill="#3A3A3A" font-family="Arial Narrow" font-size="12.5">24,002€</text>
</g>
<g>
	<text transform="matrix(1 0 0 1 417.6035 97.2502)" fill="#BD9C2F" font-family="Arial Narrow" font-weight="700" font-size="16">RETAIL</text>
</g>
<g>
	<g>
		<text transform="matrix(1 0 0 1 121.4823 329.1549)" fill="#3A3A3A" font-family="Arial Narrow" font-size="12.5">Street cleaners</text>
	</g>
	<g>
		<text transform="matrix(1 0 0 1 282.8154 329.1549)" fill="#3A3A3A" font-family="Arial Narrow" font-size="12.5">13,509€</text>
	</g>
	<g>
		<text transform="matrix(1 0 0 1 121.4823 346.7134)" fill="#3A3A3A" font-family="Arial Narrow" font-size="12.5">Industrial cleaning occupations</text>
	</g>
	<g>
		<text transform="matrix(1 0 0 1 282.8154 346.7134)" fill="#3A3A3A" font-family="Arial Narrow" font-size="12.5">23,142€</text>
	</g>
	<g>
		<text transform="matrix(1 0 0 1 121.4823 308.1661)" fill="#BD9C2F" font-family="Arial Narrow" font-weight="700" font-size="16">SUPPORT SERVICES</text>
	</g>
	<g>
		<text transform="matrix(1 0 0 1 121.4823 395.4047)" fill="#3A3A3A" font-family="Arial Narrow" font-size="12.5">Journalists</text>
	</g>
	<g>
		<text transform="matrix(1 0 0 1 282.8154 395.4047)" fill="#3A3A3A" font-family="Arial Narrow" font-size="12.5">37,772€</text>
	</g>
	<g>
		<text transform="matrix(1 0 0 1 121.4823 412.9634)" fill="#3A3A3A" font-family="Arial Narrow" font-size="12.5">Biochemists</text>
	</g>
	<g>
		<text transform="matrix(1 0 0 1 282.8154 412.9634)" fill="#3A3A3A" font-family="Arial Narrow" font-size="12.5">46,915€</text>
	</g>
	<g>
		<text transform="matrix(1 0 0 1 121.4823 375.517)" fill="#BD9C2F" font-family="Arial Narrow" font-weight="700" font-size="16">PROFESSIONALS, SCIENCE, ICT</text>
	</g>
	<g>
		<text transform="matrix(1 0 0 1 121.4823 459.6777)" fill="#3A3A3A" font-family="Arial Narrow" font-size="12.5">Fire service officers</text>
	</g>
	<g>
		<text transform="matrix(1 0 0 1 282.8154 459.6777)" fill="#3A3A3A" font-family="Arial Narrow" font-size="12.5">54,632€</text>
	</g>
	<g>
		<text transform="matrix(1 0 0 1 121.4823 477.2363)" fill="#3A3A3A" font-family="Arial Narrow" font-size="12.5">Police officers</text>
	</g>
	<g>
		<text transform="matrix(1 0 0 1 282.8154 477.2363)" fill="#3A3A3A" font-family="Arial Narrow" font-size="12.5">63,126€</text>
	</g>
	<g>
		<text transform="matrix(1 0 0 1 121.4823 434.4994)" fill="#BD9C2F" font-family="Arial Narrow" font-weight="700" font-size="16">PUBLIC ADMINISTRATION</text>
	</g>
</g>
<g>
	<rect x="349.4" y="426.8" fill="#FFFFFF" width="50.4" height="97.8"/>
	<path fill="#E0E1E1" d="M348.5,425.9c0,6,0,98.9,0,98.9h1.8V426L348.5,425.9z"/>
	<path fill="#E0E1E1" d="M398,425.9c0,5.9,0,99,0,99h1.8V426L398,425.9z"/>
	<path fill="#E0E1E1" d="M348.5,427.7c3.1,0,51.2,0,51.2,0l0-1.8h-51.2L348.5,427.7z"/>
	<polygon fill="#E0E1E1" points="365.6,449.3 374.6,449.3 374.6,437.6 365.6,437.6 365.6,438.5 373.7,438.5 373.7,448.4 
		366.5,448.4 365.6,448.4 	"/>
	<polygon fill="#E0E1E1" points="365.6,438.4 366.5,438.4 366.5,448.5 365.6,448.5 	"/>
	<polygon fill="#E0E1E1" points="367.4,439.4 372.8,439.4 372.8,447.5 367.4,447.5 	"/>
	<polygon fill="#E0E1E1" points="373.7,449.3 382.7,449.3 382.7,437.6 373.7,437.6 373.7,438.5 381.8,438.5 381.8,448.4 
		374.6,448.4 373.7,448.4 	"/>
	<polygon fill="#E0E1E1" points="373.7,438.4 374.6,438.4 374.6,448.5 373.7,448.5 	"/>
	<polygon fill="#E0E1E1" points="375.5,439.4 380.9,439.4 380.9,447.5 375.5,447.5 	"/>
	<polygon fill="#E0E1E1" points="381.8,449.3 390.8,449.3 390.8,437.6 381.8,437.6 381.8,438.5 389.9,438.5 389.9,448.4 
		382.7,448.4 381.8,448.4 	"/>
	<polygon fill="#E0E1E1" points="381.8,438.4 382.7,438.4 382.7,448.5 381.8,448.5 	"/>
	<polygon fill="#E0E1E1" points="383.6,439.4 389,439.4 389,447.5 383.6,447.5 	"/>
	<polygon fill="#E0E1E1" points="389.9,449.3 398.9,449.3 398.9,437.6 389.9,437.6 389.9,438.5 398,438.5 398,448.4 390.8,448.4 
		389.9,448.4 	"/>
	<polygon fill="#E0E1E1" points="389.9,438.4 390.8,438.4 390.7,448.5 389.9,448.5 	"/>
	<polygon fill="#E0E1E1" points="391.7,439.4 397.1,439.4 397.1,447.5 391.7,447.5 	"/>
	<polygon fill="#E0E1E1" points="389.9,460.1 398.9,460.1 398.9,448.4 389.9,448.4 389.9,449.3 398,449.3 398,459.2 390.8,459.2 
		389.9,459.2 	"/>
	<polygon fill="#E0E1E1" points="389.9,449.3 390.8,449.2 390.8,459.4 389.9,459.3 	"/>
	<polygon fill="#E0E1E1" points="391.7,450.2 397.1,450.2 397.1,458.3 391.7,458.3 	"/>
	<polygon fill="#E0E1E1" points="389.9,470.9 398.9,470.9 398.9,459.2 389.9,459.2 389.9,460.1 398,460.1 398,470 390.8,470 
		389.9,470 	"/>
	<polygon fill="#E0E1E1" points="389.9,460.1 390.8,460 390.8,470.2 389.9,470.1 	"/>
	<polygon fill="#E0E1E1" points="391.7,461 397.1,461 397.1,469.1 391.7,469.1 	"/>
	<polygon fill="#E0E1E1" points="389.9,481.7 398.9,481.7 398.9,470 389.9,470 389.9,470.9 398,470.9 398,480.8 390.8,480.8 
		389.9,480.8 	"/>
	<polygon fill="#E0E1E1" points="389.9,470.8 390.8,470.8 390.7,480.9 389.9,480.9 	"/>
	<polygon fill="#E0E1E1" points="391.7,471.8 397.1,471.8 397.1,479.9 391.7,479.9 	"/>
	<polygon fill="#E0E1E1" points="389.9,492.5 398.9,492.5 398.9,480.8 389.9,480.8 389.9,481.7 398,481.7 398,491.6 390.8,491.6 
		389.9,491.6 	"/>
	<polygon fill="#E0E1E1" points="389.9,481.6 390.8,481.6 390.7,491.7 389.9,491.7 	"/>
	<polygon fill="#E0E1E1" points="391.7,482.6 397.1,482.6 397.1,490.7 391.7,490.7 	"/>
	<polygon fill="#E0E1E1" points="389.9,503.3 398.9,503.3 398.9,491.6 389.9,491.6 389.9,492.5 398,492.5 398,502.4 390.8,502.4 
		389.9,502.4 	"/>
	<polygon fill="#E0E1E1" points="389.9,492.4 390.8,492.4 390.8,502.5 389.9,502.5 	"/>
	<polygon fill="#E0E1E1" points="391.7,493.4 397.1,493.4 397.1,501.5 391.7,501.5 	"/>
	<polygon fill="#E0E1E1" points="389.9,514.1 398.9,514.1 398.9,502.4 389.9,502.4 389.9,503.3 398,503.3 398,513.2 390.8,513.2 
		389.9,513.2 	"/>
	<polygon fill="#E0E1E1" points="389.9,503.2 390.8,503.2 390.7,513.3 389.9,513.3 	"/>
	<polygon fill="#E0E1E1" points="391.7,504.2 397.1,504.2 397.1,512.3 391.7,512.3 	"/>
	<polygon fill="#E0E1E1" points="389.9,524.9 398.9,524.9 398.9,513.2 389.9,513.2 389.9,514.1 398,514.1 398,524 390.8,524 
		389.9,524 	"/>
	<polygon fill="#E0E1E1" points="389.9,514 390.8,514 390.8,524.1 389.9,524.1 	"/>
	<polygon fill="#E0E1E1" points="391.7,515 397.1,515 397.1,523.1 391.7,523.1 	"/>
	<polygon fill="#E0E1E1" points="381.7,524.9 390.7,524.9 390.7,513.2 381.7,513.2 381.7,514.1 389.9,514.1 389.9,524 382.6,524 
		381.7,524 	"/>
	<polygon fill="#E0E1E1" points="381.7,514 382.6,514 382.6,524.1 381.7,524.1 	"/>
	<polygon fill="#E0E1E1" points="383.6,515 388.9,515 388.9,523.1 383.6,523.1 	"/>
	<polygon fill="#E0E1E1" points="381.8,514 390.8,514.1 390.8,502.4 381.8,502.4 381.8,503.3 389.9,503.3 389.9,513.2 382.7,513.2 
		381.8,513.2 	"/>
	<polygon fill="#E0E1E1" points="381.8,503.2 382.7,503.2 382.7,513.3 381.8,513.3 	"/>
	<polygon fill="#E0E1E1" points="383.6,504.2 389,504.2 389,512.2 383.6,512.3 	"/>
	<polygon fill="#E0E1E1" points="381.8,503.3 390.8,503.3 390.8,491.6 381.8,491.6 381.8,492.5 389.9,492.5 389.9,502.4 
		382.7,502.4 381.8,502.4 	"/>
	<polygon fill="#E0E1E1" points="381.8,492.4 382.7,492.4 382.6,502.5 381.8,502.5 	"/>
	<polygon fill="#E0E1E1" points="383.6,493.4 389,493.4 389,501.5 383.6,501.5 	"/>
	<polygon fill="#E0E1E1" points="381.8,492.5 390.8,492.5 390.8,480.8 381.8,480.8 381.8,481.7 389.9,481.7 389.9,491.6 
		382.7,491.6 381.8,491.6 	"/>
	<polygon fill="#E0E1E1" points="381.8,481.6 382.7,481.6 382.7,491.7 381.8,491.7 	"/>
	<polygon fill="#E0E1E1" points="383.6,482.6 389,482.6 389,490.7 383.6,490.7 	"/>
	<polygon fill="#E0E1E1" points="381.8,481.7 390.8,481.7 390.8,470 381.8,470 381.8,470.9 389.9,470.9 389.9,480.8 382.7,480.8 
		381.8,480.8 	"/>
	<polygon fill="#E0E1E1" points="381.8,470.8 382.7,470.8 382.6,480.9 381.8,480.9 	"/>
	<polygon fill="#E0E1E1" points="383.6,471.8 389,471.8 389,479.9 383.6,479.9 	"/>
	<polygon fill="#E0E1E1" points="381.8,470.9 390.8,470.9 390.8,459.2 381.8,459.2 381.8,460.1 389.9,460.1 389.9,470 382.7,470 
		381.8,470 	"/>
	<polygon fill="#E0E1E1" points="381.8,460.1 382.7,460 382.7,470.2 381.8,470.1 	"/>
	<polygon fill="#E0E1E1" points="383.6,461 389,461 389,469.1 383.6,469.1 	"/>
	<polygon fill="#E0E1E1" points="381.8,460.1 390.8,460.1 390.8,448.4 381.8,448.4 381.8,449.3 389.9,449.3 389.9,459.2 
		382.7,459.2 381.8,459.2 	"/>
	<polygon fill="#E0E1E1" points="381.8,449.3 382.7,449.2 382.6,459.4 381.8,459.3 	"/>
	<polygon fill="#E0E1E1" points="383.6,450.2 389,450.2 389,458.3 383.6,458.3 	"/>
	<polygon fill="#E0E1E1" points="373.7,460.1 382.7,460.1 382.7,448.4 373.7,448.4 373.7,449.3 381.8,449.3 381.8,459.2 
		374.6,459.2 373.7,459.2 	"/>
	<polygon fill="#E0E1E1" points="373.7,449.3 374.6,449.2 374.5,459.4 373.7,459.3 	"/>
	<polygon fill="#E0E1E1" points="375.5,450.2 380.9,450.2 380.9,458.3 375.5,458.3 	"/>
	<polygon fill="#E0E1E1" points="373.7,470.9 382.7,470.9 382.7,459.2 373.7,459.2 373.7,460.1 381.8,460.1 381.8,470 374.6,470 
		373.7,470 	"/>
	<polygon fill="#E0E1E1" points="373.7,460.1 374.6,460 374.6,470.2 373.7,470.1 	"/>
	<polygon fill="#E0E1E1" points="375.5,461 380.9,461 380.9,469.1 375.5,469.1 	"/>
	<polygon fill="#E0E1E1" points="373.7,481.7 382.7,481.7 382.7,470 373.7,470 373.7,470.9 381.8,470.9 381.8,480.8 374.6,480.8 
		373.7,480.8 	"/>
	<polygon fill="#E0E1E1" points="373.7,470.8 374.6,470.8 374.6,480.9 373.7,480.9 	"/>
	<polygon fill="#E0E1E1" points="375.5,471.8 380.9,471.8 380.9,479.9 375.5,479.9 	"/>
	<polygon fill="#E0E1E1" points="373.7,492.5 382.7,492.5 382.7,480.8 373.7,480.8 373.7,481.7 381.8,481.7 381.8,491.6 
		374.6,491.6 373.7,491.6 	"/>
	<polygon fill="#E0E1E1" points="373.7,481.6 374.6,481.6 374.6,491.7 373.7,491.7 	"/>
	<polygon fill="#E0E1E1" points="375.5,482.6 380.9,482.6 380.9,490.7 375.5,490.7 	"/>
	<polygon fill="#E0E1E1" points="373.7,503.3 382.7,503.3 382.7,491.6 373.7,491.6 373.7,492.5 381.8,492.5 381.8,502.4 
		374.6,502.4 373.7,502.4 	"/>
	<polygon fill="#E0E1E1" points="373.7,492.4 374.6,492.4 374.5,502.5 373.7,502.5 	"/>
	<polygon fill="#E0E1E1" points="375.5,493.4 380.9,493.4 380.9,501.5 375.5,501.5 	"/>
	<polygon fill="#E0E1E1" points="373.7,514.1 382.7,514.1 382.7,502.4 373.7,502.4 373.7,503.3 381.8,503.3 381.8,513.2 
		374.6,513.2 373.7,513.2 	"/>
	<polygon fill="#E0E1E1" points="373.7,503.2 374.6,503.2 374.6,513.3 373.7,513.3 	"/>
	<polygon fill="#E0E1E1" points="375.5,504.2 380.9,504.2 380.9,512.3 375.5,512.3 	"/>
	<polygon fill="#E0E1E1" points="373.7,524.9 382.7,524.9 382.7,513.2 373.7,513.2 373.7,514.1 381.8,514.1 381.8,524 374.6,524 
		373.7,524 	"/>
	<polygon fill="#E0E1E1" points="373.7,514 374.6,514 374.6,524.1 373.7,524.1 	"/>
	<polygon fill="#E0E1E1" points="375.5,515 380.9,515 380.9,523.1 375.5,523.1 	"/>
	<polygon fill="#E0E1E1" points="365.6,460.1 374.5,460.1 374.5,448.4 365.6,448.4 365.6,449.3 373.7,449.3 373.7,459.2 
		366.5,459.2 365.6,459.2 	"/>
	<polygon fill="#E0E1E1" points="365.6,449.2 366.5,449.2 366.4,459.3 365.6,459.3 	"/>
	<polygon fill="#E0E1E1" points="367.4,450.2 372.7,450.2 372.7,458.3 367.4,458.3 	"/>
	<polygon fill="#E0E1E1" points="365.6,470.9 374.5,470.9 374.5,459.2 365.6,459.2 365.6,460.1 373.7,460.1 373.7,470 366.5,470 
		365.6,470 	"/>
	<polygon fill="#E0E1E1" points="365.6,460 366.5,460 366.4,470.1 365.6,470.1 	"/>
	<polygon fill="#E0E1E1" points="367.4,461 372.7,461 372.7,469.1 367.4,469.1 	"/>
	<polygon fill="#E0E1E1" points="365.6,481.7 374.5,481.7 374.5,470 365.6,470 365.6,470.9 373.7,470.9 373.7,480.8 366.5,480.8 
		365.6,480.8 	"/>
	<polygon fill="#E0E1E1" points="365.6,470.8 366.5,470.8 366.4,480.9 365.6,480.9 	"/>
	<polygon fill="#E0E1E1" points="367.4,471.8 372.7,471.8 372.7,479.9 367.4,479.9 	"/>
	<polygon fill="#E0E1E1" points="365.6,492.5 374.6,492.5 374.6,480.8 365.6,480.8 365.6,481.7 373.7,481.7 373.7,491.6 
		366.5,491.6 365.6,491.6 	"/>
	<polygon fill="#E0E1E1" points="365.6,481.6 366.5,481.6 366.5,491.7 365.6,491.7 	"/>
	<polygon fill="#E0E1E1" points="367.4,482.6 372.8,482.6 372.8,490.7 367.4,490.7 	"/>
	<polygon fill="#E0E1E1" points="365.6,503.3 374.6,503.3 374.6,491.6 365.6,491.6 365.6,492.5 373.7,492.5 373.7,502.4 
		366.5,502.4 365.6,502.4 	"/>
	<polygon fill="#E0E1E1" points="365.6,492.4 366.5,492.4 366.5,502.5 365.6,502.5 	"/>
	<polygon fill="#E0E1E1" points="367.4,493.4 372.8,493.4 372.8,501.5 367.4,501.5 	"/>
	<polygon fill="#E0E1E1" points="365.6,514.1 374.6,514.1 374.6,502.4 365.6,502.4 365.6,503.3 373.7,503.3 373.7,513.2 
		366.5,513.2 365.6,513.2 	"/>
	<polygon fill="#E0E1E1" points="365.6,503.2 366.5,503.2 366.5,513.3 365.6,513.3 	"/>
	<polygon fill="#E0E1E1" points="367.4,504.2 372.8,504.2 372.8,512.3 367.4,512.3 	"/>
	<polygon fill="#E0E1E1" points="365.6,524.9 374.5,524.9 374.5,513.2 365.6,513.2 365.6,514.1 373.7,514.1 373.7,524 366.5,524 
		365.6,524 	"/>
	<polygon fill="#E0E1E1" points="365.6,514 366.5,514 366.4,524.1 365.6,524.1 	"/>
	<polygon fill="#E0E1E1" points="367.4,515 372.7,515 372.7,523.1 367.4,523.1 	"/>
	<polygon fill="#E0E1E1" points="365.6,438.5 374.6,438.5 374.6,426.8 365.6,426.8 365.6,427.7 373.7,427.7 373.7,437.6 
		366.5,437.6 365.6,437.6 	"/>
	<polygon fill="#E0E1E1" points="365.6,427.6 366.5,427.6 366.5,437.7 365.6,437.7 	"/>
	<polygon fill="#E0E1E1" points="367.4,428.6 372.8,428.6 372.8,436.7 367.4,436.7 	"/>
	<polygon fill="#E0E1E1" points="357.5,438.5 366.5,438.5 366.5,426.9 357.5,426.8 357.5,427.7 365.6,427.7 365.6,437.7 
		358.4,437.7 357.5,437.7 	"/>
	<polygon fill="#E0E1E1" points="357.5,427.7 358.4,427.6 358.4,437.8 357.5,437.7 	"/>
	<polygon fill="#E0E1E1" points="359.3,428.7 364.7,428.6 364.7,436.7 359.3,436.7 	"/>
	<polygon fill="#E0E1E1" points="349.4,438.5 358.4,438.5 358.4,426.8 349.4,426.8 349.4,427.7 357.5,427.7 357.5,437.6 
		350.3,437.6 349.4,437.6 	"/>
	<polygon fill="#E0E1E1" points="349.4,427.6 350.3,427.6 350.3,437.7 349.4,437.7 	"/>
	<polygon fill="#E0E1E1" points="351.2,428.6 356.6,428.6 356.6,436.7 351.2,436.7 	"/>
	<polygon fill="#E0E1E1" points="349.4,449.3 358.4,449.3 358.4,437.6 349.4,437.6 349.4,438.5 357.5,438.5 357.5,448.4 
		350.3,448.4 349.4,448.4 	"/>
	<polygon fill="#E0E1E1" points="349.4,438.4 350.3,438.4 350.3,448.5 349.4,448.5 	"/>
	<polygon fill="#E0E1E1" points="351.2,439.4 356.6,439.4 356.6,447.5 351.2,447.5 	"/>
	<polygon fill="#E0E1E1" points="349.4,460.1 358.4,460.1 358.4,448.4 349.4,448.4 349.4,449.3 357.5,449.3 357.5,459.2 
		350.3,459.2 349.4,459.2 	"/>
	<polygon fill="#E0E1E1" points="349.4,449.3 350.3,449.2 350.3,459.4 349.4,459.3 	"/>
	<polygon fill="#E0E1E1" points="351.2,450.2 356.6,450.2 356.6,458.3 351.2,458.3 	"/>
	<polygon fill="#E0E1E1" points="357.5,449.3 366.5,449.3 366.5,437.6 357.5,437.6 357.5,438.5 365.6,438.5 365.6,448.4 
		358.4,448.4 357.5,448.4 	"/>
	<polygon fill="#E0E1E1" points="357.5,438.4 358.4,438.4 358.4,448.5 357.5,448.5 	"/>
	<polygon fill="#E0E1E1" points="359.3,439.4 364.7,439.4 364.7,447.5 359.3,447.5 	"/>
	<polygon fill="#E0E1E1" points="357.5,460.1 366.5,460.1 366.5,448.4 357.5,448.4 357.5,449.3 365.6,449.3 365.6,459.2 
		358.4,459.2 357.5,459.2 	"/>
	<polygon fill="#E0E1E1" points="357.5,449.3 358.4,449.2 358.4,459.4 357.5,459.3 	"/>
	<polygon fill="#E0E1E1" points="359.3,450.2 364.7,450.2 364.7,458.3 359.3,458.3 	"/>
	<polygon fill="#E0E1E1" points="357.5,470.9 366.5,470.9 366.5,459.2 357.5,459.2 357.5,460.1 365.6,460.1 365.6,470 358.4,470 
		357.5,470 	"/>
	<polygon fill="#E0E1E1" points="357.5,460.1 358.4,460 358.4,470.2 357.5,470.1 	"/>
	<polygon fill="#E0E1E1" points="359.3,461 364.7,461 364.7,469.1 359.3,469.1 	"/>
	<polygon fill="#E0E1E1" points="357.5,481.7 366.5,481.7 366.5,470 357.5,470 357.5,470.9 365.6,470.9 365.6,480.8 358.4,480.8 
		357.5,480.8 	"/>
	<polygon fill="#E0E1E1" points="357.5,470.8 358.4,470.8 358.4,480.9 357.5,480.9 	"/>
	<polygon fill="#E0E1E1" points="359.3,471.8 364.7,471.8 364.7,479.9 359.3,479.9 	"/>
	<polygon fill="#E0E1E1" points="357.5,492.5 366.5,492.5 366.5,480.8 357.5,480.8 357.5,481.7 365.6,481.7 365.6,491.6 
		358.4,491.6 357.5,491.6 	"/>
	<polygon fill="#E0E1E1" points="357.5,481.6 358.4,481.6 358.4,491.7 357.5,491.7 	"/>
	<polygon fill="#E0E1E1" points="359.3,482.6 364.7,482.6 364.7,490.7 359.3,490.7 	"/>
	<polygon fill="#E0E1E1" points="357.5,503.3 366.5,503.3 366.5,491.6 357.5,491.6 357.5,492.5 365.6,492.5 365.6,502.4 
		358.4,502.4 357.5,502.4 	"/>
	<polygon fill="#E0E1E1" points="357.5,492.4 358.4,492.4 358.4,502.5 357.5,502.5 	"/>
	<polygon fill="#E0E1E1" points="359.3,493.4 364.7,493.4 364.7,501.5 359.3,501.5 	"/>
	<polygon fill="#E0E1E1" points="357.5,514.1 366.5,514.1 366.5,502.4 357.5,502.4 357.5,503.3 365.6,503.3 365.6,513.2 
		358.4,513.2 357.5,513.2 	"/>
	<polygon fill="#E0E1E1" points="357.5,503.2 358.4,503.2 358.4,513.3 357.5,513.3 	"/>
	<polygon fill="#E0E1E1" points="359.3,504.2 364.7,504.2 364.7,512.3 359.3,512.3 	"/>
	<polygon fill="#E0E1E1" points="357.5,524.9 366.5,524.9 366.5,513.2 357.5,513.2 357.5,514.1 365.6,514.1 365.6,524 358.4,524 
		357.5,524 	"/>
	<polygon fill="#E0E1E1" points="357.5,514 358.4,514 358.4,524.1 357.5,524.1 	"/>
	<polygon fill="#E0E1E1" points="359.3,515 364.7,515 364.7,523.1 359.3,523.1 	"/>
	<polygon fill="#E0E1E1" points="349.4,470.9 358.4,470.9 358.4,459.2 349.4,459.2 349.4,460.1 357.5,460.1 357.5,470 350.3,470 
		349.4,470 	"/>
	<polygon fill="#E0E1E1" points="349.4,460.1 350.3,460 350.3,470.2 349.4,470.1 	"/>
	<polygon fill="#E0E1E1" points="351.2,461 356.6,461 356.6,469.1 351.2,469.1 	"/>
	<polygon fill="#E0E1E1" points="349.4,481.7 358.4,481.7 358.4,470 349.4,470 349.4,470.9 357.5,470.9 357.5,480.8 350.3,480.8 
		349.4,480.8 	"/>
	<polygon fill="#E0E1E1" points="349.4,470.8 350.3,470.8 350.3,480.9 349.4,480.9 	"/>
	<polygon fill="#E0E1E1" points="351.2,471.8 356.6,471.8 356.6,479.9 351.2,479.9 	"/>
	<polygon fill="#E0E1E1" points="349.4,492.5 358.4,492.5 358.4,480.8 349.4,480.8 349.4,481.7 357.5,481.7 357.5,491.6 
		350.3,491.6 349.4,491.6 	"/>
	<polygon fill="#E0E1E1" points="349.4,481.6 350.3,481.6 350.3,491.7 349.4,491.7 	"/>
	<polygon fill="#E0E1E1" points="351.2,482.6 356.6,482.6 356.6,490.7 351.2,490.7 	"/>
	<polygon fill="#E0E1E1" points="349.4,503.3 358.4,503.3 358.4,491.6 349.4,491.6 349.4,492.5 357.5,492.5 357.5,502.4 
		350.3,502.4 349.4,502.4 	"/>
	<polygon fill="#E0E1E1" points="349.4,492.4 350.3,492.4 350.3,502.5 349.4,502.5 	"/>
	<polygon fill="#E0E1E1" points="351.2,493.4 356.6,493.4 356.6,501.5 351.2,501.5 	"/>
	<polygon fill="#E0E1E1" points="349.4,514.1 358.4,514.1 358.4,502.4 349.4,502.4 349.4,503.3 357.5,503.3 357.5,513.2 
		350.3,513.2 349.4,513.2 	"/>
	<polygon fill="#E0E1E1" points="349.4,503.2 350.3,503.2 350.3,513.3 349.4,513.3 	"/>
	<polygon fill="#E0E1E1" points="351.2,504.2 356.6,504.2 356.6,512.3 351.2,512.3 	"/>
	<polygon fill="#E0E1E1" points="349.4,524.9 358.4,524.9 358.4,513.2 349.4,513.2 349.4,514.1 357.5,514.1 357.5,524 350.3,524 
		349.4,524 	"/>
	<polygon fill="#E0E1E1" points="349.4,514 350.3,514 350.3,524.1 349.4,524.1 	"/>
	<polygon fill="#E0E1E1" points="351.2,515 356.6,515 356.6,523.1 351.2,523.1 	"/>
	<polygon fill="#E0E1E1" points="373.7,438.5 382.7,438.5 382.7,426.9 373.7,426.8 373.7,427.7 381.8,427.7 381.8,437.7 
		374.6,437.7 373.7,437.7 	"/>
	<polygon fill="#E0E1E1" points="373.7,427.7 374.6,427.6 374.6,437.8 373.7,437.7 	"/>
	<polygon fill="#E0E1E1" points="375.5,428.7 380.9,428.6 380.9,436.7 375.5,436.7 	"/>
	<polygon fill="#E0E1E1" points="381.8,438.5 390.8,438.5 390.8,426.9 381.8,426.8 381.8,427.7 389.9,427.7 389.9,437.7 
		382.7,437.7 381.8,437.7 	"/>
	<polygon fill="#E0E1E1" points="381.8,427.7 382.7,427.6 382.6,437.8 381.8,437.7 	"/>
	<polygon fill="#E0E1E1" points="383.6,428.7 389,428.6 389,436.7 383.6,436.7 	"/>
	<polygon fill="#E0E1E1" points="391.7,428.7 397.1,428.6 397.1,436.7 391.7,436.7 	"/>
</g>
<g>
	<g>
		<text transform="matrix(1 0 0 1 437.27 329.7081)" fill="#3A3A3A" font-family="Arial Narrow" font-size="12.5">Health associate professionals n.e.c.</text>
	</g>
	<g>
		<text transform="matrix(1 0 0 1 611.3395 329.7081)" fill="#3A3A3A" font-family="Arial Narrow" font-size="12.5">12,635€</text>
	</g>
	<g>
		<text transform="matrix(1 0 0 1 437.27 346.9255)" fill="#3A3A3A" font-family="Arial Narrow" font-size="12.5">Senior care workers</text>
	</g>
	<g>
		<text transform="matrix(1 0 0 1 611.3395 346.9255)" fill="#3A3A3A" font-family="Arial Narrow" font-size="12.5">26,569€</text>
	</g>
	<text transform="matrix(1 0 0 1 437.27 309.2396)" fill="#DD4A4B" font-family="Arial Narrow" font-weight="700" font-size="16">HEALTH</text>
	<g>
		<text transform="matrix(1 0 0 1 437.27 364.1429)" fill="#3A3A3A" font-family="Arial Narrow" font-size="12.5">Nursing auxiliaries and assistants</text>
	</g>
	<g>
		<text transform="matrix(1 0 0 1 611.3395 364.1429)" fill="#3A3A3A" font-family="Arial Narrow" font-size="12.5">29,221€</text>
	</g>
	<g>
		<text transform="matrix(1 0 0 1 437.27 381.3609)" fill="#3A3A3A" font-family="Arial Narrow" font-size="12.5">Laboratory technicians</text>
	</g>
	<g>
		<text transform="matrix(1 0 0 1 611.3395 381.3609)" fill="#3A3A3A" font-family="Arial Narrow" font-size="12.5">32,745€</text>
	</g>
	<g>
		<text transform="matrix(1 0 0 1 437.27 398.5782)" fill="#3A3A3A" font-family="Arial Narrow" font-size="12.5">Nursing professionals</text>
	</g>
	<g>
		<text transform="matrix(1 0 0 1 611.3395 398.5782)" fill="#3A3A3A" font-family="Arial Narrow" font-size="12.5">44,793€</text>
	</g>
	<g>
		<text transform="matrix(1 0 0 1 437.27 415.7961)" fill="#3A3A3A" font-family="Arial Narrow" font-size="12.5">Paramedics</text>
	</g>
	<g>
		<text transform="matrix(1 0 0 1 611.3395 415.7961)" fill="#3A3A3A" font-family="Arial Narrow" font-size="12.5">60,467€</text>
	</g>
	<g>
		<text transform="matrix(1 0 0 1 437.27 433.0135)" fill="#3A3A3A" font-family="Arial Narrow" font-size="12.5">Medical practitioners</text>
	</g>
	<g>
		<text transform="matrix(1 0 0 1 611.3395 433.0135)" fill="#3A3A3A" font-family="Arial Narrow" font-size="12.5">92,825€</text>
	</g>
</g>
<g>
	<polygon fill="#E0E1E1" points="433.9,456.3 497.7,456.3 497.7,501.3 518.9,501.3 518.9,524.8 433.9,524.8 	"/>
	<polygon fill="#E0E1E1" points="519.8,504.3 522.8,504.3 522.8,501.2 525.8,501.2 525.8,504.3 528.8,504.3 528.8,507.3 
		525.8,507.3 525.8,510.2 522.8,510.2 522.8,507.3 519.8,507.3 	"/>
</g>
<path fill="#DD4B4B" d="M545.5,523.3c2.6,0,5.3,0,7.9,0c0-0.6-0.6-0.8-1-0.9c0-3.6,0-7.2,0-10.9c0.7-0.3,1.3-1,1.3-1.8
	c0-3.1,0-6.3-0.1-9.4c0,0-0.1-0.4-0.6-0.6c0,0-1.4,0-2.5,0c0,0,0.1-1,0.3-2.6c0,0,0.3-1.9-1.5-1.9c-1.9,0-1.7,1.9-1.7,1.9
	c0.1,1.2,0.3,2.6,0.3,2.6c-1.1,0-2.5,0-2.5,0c-0.5,0.1-0.6,0.6-0.6,0.6c0,3.1-0.1,6.3-0.1,9.4c0,0.8,0.6,1.5,1.3,1.8
	c0,3.7,0,7.2,0,10.9c-0.4,0.1-1,0.4-1,0.9c2.6,0,5.3,0,7.9,0H545.5z"/>
<path fill="#DD4B4B" d="M558.7,523.3c2.6,0,5.3,0,7.9,0c0-0.6-0.6-0.8-1-0.9c0-3.6,0-7.2,0-10.9c0.7-0.3,1.3-1,1.3-1.8
	c0-3.1,0-6.3-0.1-9.4c0,0-0.1-0.4-0.6-0.6c0,0-1.4,0-2.5,0c0,0,0.1-1,0.3-2.6c0,0,0.3-1.9-1.5-1.9c-1.9,0-1.7,1.9-1.7,1.9
	c0.1,1.2,0.3,2.6,0.3,2.6c-1.1,0-2.5,0-2.5,0c-0.5,0.1-0.6,0.6-0.6,0.6c0,3.1-0.1,6.3-0.1,9.4c0,0.8,0.6,1.5,1.3,1.8
	c0,3.7,0,7.2,0,10.9c-0.4,0.1-1,0.4-1,0.9c2.6,0,5.3,0,7.9,0H558.7z"/>
<path fill="#DD4B4B" d="M572,523.3c2.6,0,5.3,0,7.9,0c0-0.6-0.6-0.8-1-0.9c0-3.6,0-7.2,0-10.9c0.7-0.3,1.3-1,1.3-1.8
	c0-3.1,0-6.3-0.1-9.4c0,0-0.1-0.4-0.6-0.6c0,0-1.4,0-2.5,0c0,0,0.1-1,0.3-2.6c0,0,0.3-1.9-1.5-1.9c-1.9,0-1.7,1.9-1.7,1.9
	c0.1,1.2,0.3,2.6,0.3,2.6c-1.1,0-2.5,0-2.5,0c-0.5,0.1-0.6,0.6-0.6,0.6c0,3.1-0.1,6.3-0.1,9.4c0,0.8,0.6,1.5,1.3,1.8
	c0,3.7,0,7.2,0,10.9c-0.4,0.1-1,0.4-1,0.9c2.6,0,5.3,0,7.9,0H572z"/>
<path fill="#DD4B4B" d="M585.2,523.3c2.6,0,5.3,0,7.9,0c0-0.6-0.6-0.8-1-0.9c0-3.6,0-7.2,0-10.9c0.7-0.3,1.3-1,1.3-1.8
	c0-3.1,0-6.3-0.1-9.4c0,0-0.1-0.4-0.6-0.6c0,0-1.4,0-2.5,0c0,0,0.1-1,0.3-2.6c0,0,0.3-1.9-1.5-1.9c-1.9,0-1.7,1.9-1.7,1.9
	c0.1,1.2,0.3,2.6,0.3,2.6c-1.1,0-2.5,0-2.5,0c-0.5,0.1-0.6,0.6-0.6,0.6c0,3.1-0.1,6.3-0.1,9.4c0,0.8,0.6,1.5,1.3,1.8
	c0,3.7,0,7.2,0,10.9c-0.4,0.1-1,0.4-1,0.9c2.6,0,5.3,0,7.9,0H585.2z"/>
<path fill="#BD9C2F" d="M161,523.3c2.6,0,5.3,0,7.9,0c0-0.6-0.6-0.8-1-0.9c0-3.6,0-7.2,0-10.9c0.7-0.3,1.3-1,1.3-1.8
	c0-3.1,0-6.3-0.1-9.4c0,0-0.1-0.4-0.6-0.6c0,0-1.4,0-2.5,0c0,0,0.1-1,0.3-2.6c0,0,0.3-1.9-1.5-1.9c-1.9,0-1.7,1.9-1.7,1.9
	c0.1,1.2,0.3,2.6,0.3,2.6c-1.1,0-2.5,0-2.5,0c-0.5,0.1-0.6,0.6-0.6,0.6c0,3.1-0.1,6.3-0.1,9.4c0,0.8,0.6,1.5,1.3,1.8
	c0,3.7,0,7.2,0,10.9c-0.4,0.1-1,0.4-1,0.9c2.6,0,5.3,0,7.9,0H161z"/>
<path fill="#BD9C2F" d="M134,523.3c2.6,0,5.3,0,7.9,0c0-0.6-0.6-0.8-1-0.9c0-3.6,0-7.2,0-10.9c0.7-0.3,1.3-1,1.3-1.8
	c0-3.1,0-6.3-0.1-9.4c0,0-0.1-0.4-0.6-0.6c0,0-1.4,0-2.5,0c0,0,0.1-1,0.3-2.6c0,0,0.3-1.9-1.5-1.9c-1.9,0-1.7,1.9-1.7,1.9
	c0.1,1.2,0.3,2.6,0.3,2.6c-1.1,0-2.5,0-2.5,0c-0.5,0.1-0.6,0.6-0.6,0.6c0,3.1-0.1,6.3-0.1,9.4c0,0.8,0.6,1.5,1.3,1.8
	c0,3.7,0,7.2,0,10.9c-0.4,0.1-1,0.4-1,0.9c2.6,0,5.3,0,7.9,0H134z"/>
<path fill="#BD9C2F" d="M147.2,523.3c2.6,0,5.3,0,7.9,0c0-0.6-0.6-0.8-1-0.9c0-3.6,0-7.2,0-10.9c0.7-0.3,1.3-1,1.3-1.8
	c0-3.1,0-6.3-0.1-9.4c0,0-0.1-0.4-0.6-0.6c0,0-1.4,0-2.5,0c0,0,0.1-1,0.3-2.6c0,0,0.3-1.9-1.5-1.9c-1.9,0-1.7,1.9-1.7,1.9
	c0.1,1.2,0.3,2.6,0.3,2.6c-1.1,0-2.5,0-2.5,0c-0.5,0.1-0.6,0.6-0.6,0.6c0,3.1-0.1,6.3-0.1,9.4c0,0.8,0.6,1.5,1.3,1.8
	c0,3.7,0,7.2,0,10.9c-0.4,0.1-1,0.4-1,0.9c2.6,0,5.3,0,7.9,0H147.2z"/>
<g>
	<path fill="#484748" d="M123.9,658.8c2.6,0,5.3,0,7.9,0c0-0.6-0.6-0.8-1-0.9c0-3.6,0-7.2,0-10.8c0.7-0.3,1.3-1,1.3-1.8
		c0-3.1-0.1-6.3-0.1-9.4c0,0-0.1-0.4-0.6-0.6c0,0-1.4,0-2.5,0c0,0,0.1-1,0.3-2.6c0,0,0.3-1.9-1.5-1.9c-1.9,0-1.7,1.9-1.7,1.9
		c0.1,1.2,0.3,2.6,0.3,2.6c-1.1,0-2.5,0-2.5,0c-0.5,0.1-0.6,0.6-0.6,0.6c0,3.1-0.1,6.3-0.1,9.4c0,0.8,0.6,1.5,1.3,1.8
		c0,3.7,0,7.2,0,10.8c-0.4,0.1-1,0.4-1,0.9c2.6,0,5.3,0,7.9,0H123.9z"/>
	<path fill="#484748" d="M137.1,658.8c2.6,0,5.3,0,7.9,0c0-0.6-0.6-0.8-1-0.9c0-3.6,0-7.2,0-10.8c0.7-0.3,1.3-1,1.3-1.8
		c0-3.1-0.1-6.3-0.1-9.4c0,0-0.1-0.4-0.6-0.6c0,0-1.4,0-2.5,0c0,0,0.1-1,0.3-2.6c0,0,0.3-1.9-1.5-1.9c-1.9,0-1.7,1.9-1.7,1.9
		c0.1,1.2,0.3,2.6,0.3,2.6c-1.1,0-2.5,0-2.5,0c-0.5,0.1-0.6,0.6-0.6,0.6c0,3.1-0.1,6.3-0.1,9.4c0,0.8,0.6,1.5,1.3,1.8
		c0,3.7,0,7.2,0,10.8c-0.4,0.1-1,0.4-1,0.9c2.6,0,5.3,0,7.9,0H137.1z"/>
	<path fill="#484748" d="M150.4,658.8c2.6,0,5.3,0,7.9,0c0-0.6-0.6-0.8-1-0.9c0-3.6,0-7.2,0-10.8c0.7-0.3,1.3-1,1.3-1.8
		c0-3.1-0.1-6.3-0.1-9.4c0,0-0.1-0.4-0.6-0.6c0,0-1.4,0-2.5,0c0,0,0.1-1,0.3-2.6c0,0,0.3-1.9-1.5-1.9c-1.9,0-1.7,1.9-1.7,1.9
		c0.1,1.2,0.3,2.6,0.3,2.6c-1.1,0-2.5,0-2.5,0c-0.5,0.1-0.6,0.6-0.6,0.6c0,3.1-0.1,6.3-0.1,9.4c0,0.8,0.6,1.5,1.3,1.8
		c0,3.7,0,7.2,0,10.8c-0.4,0.1-1,0.4-1,0.9c2.6,0,5.3,0,7.9,0H150.4z"/>
	<path fill="#484748" d="M163.6,658.8c2.6,0,5.3,0,7.9,0c0-0.6-0.6-0.8-1-0.9c0-3.6,0-7.2,0-10.8c0.7-0.3,1.3-1,1.3-1.8
		c0-3.1,0-6.3-0.1-9.4c0,0-0.1-0.4-0.6-0.6c0,0-1.4,0-2.5,0c0,0,0.1-1,0.3-2.6c0,0,0.3-1.9-1.5-1.9c-1.9,0-1.7,1.9-1.7,1.9
		c0.1,1.2,0.3,2.6,0.3,2.6c-1.1,0-2.5,0-2.5,0c-0.5,0.1-0.6,0.6-0.6,0.6c0,3.1-0.1,6.3-0.1,9.4c0,0.8,0.6,1.5,1.3,1.8
		c0,3.7,0,7.2,0,10.8c-0.4,0.1-1,0.4-1,0.9c2.6,0,5.3,0,7.9,0H163.6z"/>
	<path fill="#484748" d="M176.8,658.8c2.6,0,5.3,0,7.9,0c0-0.6-0.6-0.8-1-0.9c0-3.6,0-7.2,0-10.8c0.7-0.3,1.3-1,1.3-1.8
		c0-3.1-0.1-6.3-0.1-9.4c0,0-0.1-0.4-0.6-0.6c0,0-1.4,0-2.5,0c0,0,0.1-1,0.3-2.6c0,0,0.3-1.9-1.5-1.9c-1.9,0-1.7,1.9-1.7,1.9
		c0.1,1.2,0.3,2.6,0.3,2.6c-1.1,0-2.5,0-2.5,0c-0.5,0.1-0.6,0.6-0.6,0.6c0,3.1-0.1,6.3-0.1,9.4c0,0.8,0.6,1.5,1.3,1.8
		c0,3.7,0,7.2,0,10.8c-0.4,0.1-1,0.4-1,0.9c2.6,0,5.3,0,7.9,0H176.8z"/>
	<path fill="#484748" d="M196.5,658.8c2.6,0,5.3,0,7.9,0c0-0.6-0.6-0.8-1-0.9c0-3.6,0-7.2,0-10.8c0.7-0.3,1.3-1,1.3-1.8
		c0-3.1-0.1-6.3-0.1-9.4c0,0-0.1-0.4-0.6-0.6c0,0-1.4,0-2.5,0c0,0,0.1-1,0.3-2.6c0,0,0.3-1.9-1.5-1.9c-1.9,0-1.7,1.9-1.7,1.9
		c0.1,1.2,0.3,2.6,0.3,2.6c-1.1,0-2.5,0-2.5,0c-0.5,0.1-0.6,0.6-0.6,0.6c0,3.1-0.1,6.3-0.1,9.4c0,0.8,0.6,1.5,1.3,1.8
		c0,3.7,0,7.2,0,10.8c-0.4,0.1-1,0.4-1,0.9c2.6,0,5.3,0,7.9,0H196.5z"/>
	<path fill="#484748" d="M209.7,658.8c2.6,0,5.3,0,7.9,0c0-0.6-0.6-0.8-1-0.9c0-3.6,0-7.2,0-10.8c0.7-0.3,1.3-1,1.3-1.8
		c0-3.1-0.1-6.3-0.1-9.4c0,0-0.1-0.4-0.6-0.6c0,0-1.4,0-2.5,0c0,0,0.1-1,0.3-2.6c0,0,0.3-1.9-1.5-1.9c-1.9,0-1.7,1.9-1.7,1.9
		c0.1,1.2,0.3,2.6,0.3,2.6c-1.1,0-2.5,0-2.5,0c-0.5,0.1-0.6,0.6-0.6,0.6c0,3.1-0.1,6.3-0.1,9.4c0,0.8,0.6,1.5,1.3,1.8
		c0,3.7,0,7.2,0,10.8c-0.4,0.1-1,0.4-1,0.9c2.6,0,5.3,0,7.9,0H209.7z"/>
	<path fill="#484748" d="M222.9,658.8c2.6,0,5.3,0,7.9,0c0-0.6-0.6-0.8-1-0.9c0-3.6,0-7.2,0-10.8c0.7-0.3,1.3-1,1.3-1.8
		c0-3.1-0.1-6.3-0.1-9.4c0,0-0.1-0.4-0.6-0.6c0,0-1.4,0-2.5,0c0,0,0.1-1,0.3-2.6c0,0,0.3-1.9-1.5-1.9c-1.9,0-1.7,1.9-1.7,1.9
		c0.1,1.2,0.3,2.6,0.3,2.6c-1.1,0-2.5,0-2.5,0c-0.5,0.1-0.6,0.6-0.6,0.6c0,3.1-0.1,6.3-0.1,9.4c0,0.8,0.6,1.5,1.3,1.8
		c0,3.7,0,7.2,0,10.8c-0.4,0.1-1,0.4-1,0.9c2.6,0,5.3,0,7.9,0H222.9z"/>
	<path fill="#484748" d="M236.2,658.8c2.6,0,5.3,0,7.9,0c0-0.6-0.6-0.8-1-0.9c0-3.6,0-7.2,0-10.8c0.7-0.3,1.3-1,1.3-1.8
		c0-3.1-0.1-6.3-0.1-9.4c0,0-0.1-0.4-0.6-0.6c0,0-1.4,0-2.5,0c0,0,0.1-1,0.3-2.6c0,0,0.3-1.9-1.5-1.9c-1.9,0-1.7,1.9-1.7,1.9
		c0.1,1.2,0.3,2.6,0.3,2.6c-1.1,0-2.5,0-2.5,0c-0.5,0.1-0.6,0.6-0.6,0.6c0,3.1-0.1,6.3-0.1,9.4c0,0.8,0.6,1.5,1.3,1.8
		c0,3.7,0,7.2,0,10.8c-0.4,0.1-1,0.4-1,0.9c2.6,0,5.3,0,7.9,0H236.2z"/>
	<path fill="#484748" d="M249.4,658.8c2.6,0,5.3,0,7.9,0c0-0.6-0.6-0.8-1-0.9c0-3.6,0-7.2,0-10.8c0.7-0.3,1.3-1,1.3-1.8
		c0-3.1,0-6.3-0.1-9.4c0,0-0.1-0.4-0.6-0.6c0,0-1.4,0-2.5,0c0,0,0.1-1,0.3-2.6c0,0,0.3-1.9-1.5-1.9c-1.9,0-1.7,1.9-1.7,1.9
		c0.1,1.2,0.3,2.6,0.3,2.6c-1.1,0-2.5,0-2.5,0c-0.5,0.1-0.6,0.6-0.6,0.6c0,3.1-0.1,6.3-0.1,9.4c0,0.8,0.6,1.5,1.3,1.8
		c0,3.7,0,7.2,0,10.8c-0.4,0.1-1,0.4-1,0.9c2.6,0,5.3,0,7.9,0H249.4z"/>
	<path fill="#484748" d="M269.8,658.7c2.6,0,5.3,0,7.9,0c0-0.6-0.6-0.8-1-0.9c0-3.6,0-7.2,0-10.8c0.7-0.3,1.3-1,1.3-1.8
		c0-3.1-0.1-6.3-0.1-9.4c0,0-0.1-0.4-0.6-0.6c0,0-1.4,0-2.5,0c0,0,0.1-1,0.3-2.6c0,0,0.3-1.9-1.5-1.9c-1.9,0-1.7,1.9-1.7,1.9
		c0.1,1.2,0.3,2.6,0.3,2.6c-1.1,0-2.5,0-2.5,0c-0.5,0.1-0.6,0.6-0.6,0.6c0,3.1-0.1,6.3-0.1,9.4c0,0.8,0.6,1.5,1.3,1.8
		c0,3.7,0,7.2,0,10.8c-0.4,0.1-1,0.4-1,0.9c2.6,0,5.3,0,7.9,0H269.8z"/>
	<path fill="#484748" d="M283,658.7c2.6,0,5.3,0,7.9,0c0-0.6-0.6-0.8-1-0.9c0-3.6,0-7.2,0-10.8c0.7-0.3,1.3-1,1.3-1.8
		c0-3.1-0.1-6.3-0.1-9.4c0,0-0.1-0.4-0.6-0.6c0,0-1.4,0-2.5,0c0,0,0.1-1,0.3-2.6c0,0,0.3-1.9-1.5-1.9c-1.9,0-1.7,1.9-1.7,1.9
		c0.1,1.2,0.3,2.6,0.3,2.6c-1.1,0-2.5,0-2.5,0c-0.5,0.1-0.6,0.6-0.6,0.6c0,3.1-0.1,6.3-0.1,9.4c0,0.8,0.6,1.5,1.3,1.8
		c0,3.7,0,7.2,0,10.8c-0.4,0.1-1,0.4-1,0.9c2.6,0,5.3,0,7.9,0H283z"/>
	<path fill="#484748" d="M296.3,658.7c2.6,0,5.3,0,7.9,0c0-0.6-0.6-0.8-1-0.9c0-3.6,0-7.2,0-10.8c0.7-0.3,1.3-1,1.3-1.8
		c0-3.1-0.1-6.3-0.1-9.4c0,0-0.1-0.4-0.6-0.6c0,0-1.4,0-2.5,0c0,0,0.1-1,0.3-2.6c0,0,0.3-1.9-1.5-1.9c-1.9,0-1.7,1.9-1.7,1.9
		c0.1,1.2,0.3,2.6,0.3,2.6c-1.1,0-2.5,0-2.5,0c-0.5,0.1-0.6,0.6-0.6,0.6c0,3.1-0.1,6.3-0.1,9.4c0,0.8,0.6,1.5,1.3,1.8
		c0,3.7,0,7.2,0,10.8c-0.4,0.1-1,0.4-1,0.9c2.6,0,5.3,0,7.9,0H296.3z"/>
	<path fill="#484748" d="M309.5,658.7c2.6,0,5.3,0,7.9,0c0-0.6-0.6-0.8-1-0.9c0-3.6,0-7.2,0-10.8c0.7-0.3,1.3-1,1.3-1.8
		c0-3.1,0-6.3-0.1-9.4c0,0-0.1-0.4-0.6-0.6c0,0-1.4,0-2.5,0c0,0,0.1-1,0.3-2.6c0,0,0.3-1.9-1.5-1.9c-1.9,0-1.7,1.9-1.7,1.9
		c0.1,1.2,0.3,2.6,0.3,2.6c-1.1,0-2.5,0-2.5,0c-0.5,0.1-0.6,0.6-0.6,0.6c0,3.1-0.1,6.3-0.1,9.4c0,0.8,0.6,1.5,1.3,1.8
		c0,3.7,0,7.2,0,10.8c-0.4,0.1-1,0.4-1,0.9c2.6,0,5.3,0,7.9,0H309.5z"/>
	<path fill="#484748" d="M322.7,658.7c2.6,0,5.3,0,7.9,0c0-0.6-0.6-0.8-1-0.9c0-3.6,0-7.2,0-10.8c0.7-0.3,1.3-1,1.3-1.8
		c0-3.1-0.1-6.3-0.1-9.4c0,0-0.1-0.4-0.6-0.6c0,0-1.4,0-2.5,0c0,0,0.1-1,0.3-2.6c0,0,0.3-1.9-1.5-1.9c-1.9,0-1.7,1.9-1.7,1.9
		c0.1,1.2,0.3,2.6,0.3,2.6c-1.1,0-2.5,0-2.5,0c-0.5,0.1-0.6,0.6-0.6,0.6c0,3.1-0.1,6.3-0.1,9.4c0,0.8,0.6,1.5,1.3,1.8
		c0,3.7,0,7.2,0,10.8c-0.4,0.1-1,0.4-1,0.9c2.6,0,5.3,0,7.9,0H322.7z"/>
</g>
<g>
	<path fill="#484748" d="M345.8,658.7c2.6,0,5.3,0,7.9,0c0-0.6-0.6-0.8-1-0.9c0-3.6,0-7.2,0-10.8c0.7-0.3,1.3-1,1.3-1.8
		c0-3.1-0.1-6.3-0.1-9.4c0,0-0.1-0.4-0.6-0.6c0,0-1.4,0-2.5,0c0,0,0.1-1,0.3-2.6c0,0,0.3-1.9-1.5-1.9c-1.9,0-1.7,1.9-1.7,1.9
		c0.1,1.2,0.3,2.6,0.3,2.6c-1.1,0-2.5,0-2.5,0c-0.5,0.1-0.6,0.6-0.6,0.6c0,3.1-0.1,6.3-0.1,9.4c0,0.8,0.6,1.5,1.3,1.8
		c0,3.7,0,7.2,0,10.8c-0.4,0.1-1,0.4-1,0.9c2.6,0,5.3,0,7.9,0H345.8z"/>
	<path fill="#484748" d="M359,658.7c2.6,0,5.3,0,7.9,0c0-0.6-0.6-0.8-1-0.9c0-3.6,0-7.2,0-10.8c0.7-0.3,1.3-1,1.3-1.8
		c0-3.1-0.1-6.3-0.1-9.4c0,0-0.1-0.4-0.6-0.6c0,0-1.4,0-2.5,0c0,0,0.1-1,0.3-2.6c0,0,0.3-1.9-1.5-1.9c-1.9,0-1.7,1.9-1.7,1.9
		c0.1,1.2,0.3,2.6,0.3,2.6c-1.1,0-2.5,0-2.5,0c-0.5,0.1-0.6,0.6-0.6,0.6c0,3.1-0.1,6.3-0.1,9.4c0,0.8,0.6,1.5,1.3,1.8
		c0,3.7,0,7.2,0,10.8c-0.4,0.1-1,0.4-1,0.9c2.6,0,5.3,0,7.9,0H359z"/>
	<path fill="#484748" d="M372.3,658.7c2.6,0,5.3,0,7.9,0c0-0.6-0.6-0.8-1-0.9c0-3.6,0-7.2,0-10.8c0.7-0.3,1.3-1,1.3-1.8
		c0-3.1-0.1-6.3-0.1-9.4c0,0-0.1-0.4-0.6-0.6c0,0-1.4,0-2.5,0c0,0,0.1-1,0.3-2.6c0,0,0.3-1.9-1.5-1.9c-1.9,0-1.7,1.9-1.7,1.9
		c0.1,1.2,0.3,2.6,0.3,2.6c-1.1,0-2.5,0-2.5,0c-0.5,0.1-0.6,0.6-0.6,0.6c0,3.1-0.1,6.3-0.1,9.4c0,0.8,0.6,1.5,1.3,1.8
		c0,3.7,0,7.2,0,10.8c-0.4,0.1-1,0.4-1,0.9c2.6,0,5.3,0,7.9,0H372.3z"/>
	<path fill="#484748" d="M385.5,658.7c2.6,0,5.3,0,7.9,0c0-0.6-0.6-0.8-1-0.9c0-3.6,0-7.2,0-10.8c0.7-0.3,1.3-1,1.3-1.8
		c0-3.1,0-6.3-0.1-9.4c0,0-0.1-0.4-0.6-0.6c0,0-1.4,0-2.5,0c0,0,0.1-1,0.3-2.6c0,0,0.3-1.9-1.5-1.9c-1.9,0-1.7,1.9-1.7,1.9
		c0.1,1.2,0.3,2.6,0.3,2.6c-1.1,0-2.5,0-2.5,0c-0.5,0.1-0.6,0.6-0.6,0.6c0,3.1-0.1,6.3-0.1,9.4c0,0.8,0.6,1.5,1.3,1.8
		c0,3.7,0,7.2,0,10.8c-0.4,0.1-1,0.4-1,0.9c2.6,0,5.3,0,7.9,0H385.5z"/>
	<path fill="#484748" d="M398.7,658.7c2.6,0,5.3,0,7.9,0c0-0.6-0.6-0.8-1-0.9c0-3.6,0-7.2,0-10.8c0.7-0.3,1.3-1,1.3-1.8
		c0-3.1-0.1-6.3-0.1-9.4c0,0-0.1-0.4-0.6-0.6c0,0-1.4,0-2.5,0c0,0,0.1-1,0.3-2.6c0,0,0.3-1.9-1.5-1.9c-1.9,0-1.7,1.9-1.7,1.9
		c0.1,1.2,0.3,2.6,0.3,2.6c-1.1,0-2.5,0-2.5,0c-0.5,0.1-0.6,0.6-0.6,0.6c0,3.1-0.1,6.3-0.1,9.4c0,0.8,0.6,1.5,1.3,1.8
		c0,3.7,0,7.2,0,10.8c-0.4,0.1-1,0.4-1,0.9c2.6,0,5.3,0,7.9,0H398.7z"/>
	<path fill="#484748" d="M418.4,658.7c2.6,0,5.3,0,7.9,0c0-0.6-0.6-0.8-1-0.9c0-3.6,0-7.2,0-10.8c0.7-0.3,1.3-1,1.3-1.8
		c0-3.1-0.1-6.3-0.1-9.4c0,0-0.1-0.4-0.6-0.6c0,0-1.4,0-2.5,0c0,0,0.1-1,0.3-2.6c0,0,0.3-1.9-1.5-1.9c-1.9,0-1.7,1.9-1.7,1.9
		c0.1,1.2,0.3,2.6,0.3,2.6c-1.1,0-2.5,0-2.5,0c-0.5,0.1-0.6,0.6-0.6,0.6c0,3.1-0.1,6.3-0.1,9.4c0,0.8,0.6,1.5,1.3,1.8
		c0,3.7,0,7.2,0,10.8c-0.4,0.1-1,0.4-1,0.9c2.6,0,5.3,0,7.9,0H418.4z"/>
	<path fill="#484748" d="M431.6,658.7c2.6,0,5.3,0,7.9,0c0-0.6-0.6-0.8-1-0.9c0-3.6,0-7.2,0-10.8c0.7-0.3,1.3-1,1.3-1.8
		c0-3.1-0.1-6.3-0.1-9.4c0,0-0.1-0.4-0.6-0.6c0,0-1.4,0-2.5,0c0,0,0.1-1,0.3-2.6c0,0,0.3-1.9-1.5-1.9c-1.9,0-1.7,1.9-1.7,1.9
		c0.1,1.2,0.3,2.6,0.3,2.6c-1.1,0-2.5,0-2.5,0c-0.5,0.1-0.6,0.6-0.6,0.6c0,3.1-0.1,6.3-0.1,9.4c0,0.8,0.6,1.5,1.3,1.8
		c0,3.7,0,7.2,0,10.8c-0.4,0.1-1,0.4-1,0.9c2.6,0,5.3,0,7.9,0H431.6z"/>
	<path fill="#484748" d="M444.8,658.7c2.6,0,5.3,0,7.9,0c0-0.6-0.6-0.8-1-0.9c0-3.6,0-7.2,0-10.8c0.7-0.3,1.3-1,1.3-1.8
		c0-3.1-0.1-6.3-0.1-9.4c0,0-0.1-0.4-0.6-0.6c0,0-1.4,0-2.5,0c0,0,0.1-1,0.3-2.6c0,0,0.3-1.9-1.5-1.9c-1.9,0-1.7,1.9-1.7,1.9
		c0.1,1.2,0.3,2.6,0.3,2.6c-1.1,0-2.5,0-2.5,0c-0.5,0.1-0.6,0.6-0.6,0.6c0,3.1-0.1,6.3-0.1,9.4c0,0.8,0.6,1.5,1.3,1.8
		c0,3.7,0,7.2,0,10.8c-0.4,0.1-1,0.4-1,0.9c2.6,0,5.3,0,7.9,0H444.8z"/>
	<path fill="#484748" d="M458.1,658.7c2.6,0,5.3,0,7.9,0c0-0.6-0.6-0.8-1-0.9c0-3.6,0-7.2,0-10.8c0.7-0.3,1.3-1,1.3-1.8
		c0-3.1-0.1-6.3-0.1-9.4c0,0-0.1-0.4-0.6-0.6c0,0-1.4,0-2.5,0c0,0,0.1-1,0.3-2.6c0,0,0.3-1.9-1.5-1.9c-1.9,0-1.7,1.9-1.7,1.9
		c0.1,1.2,0.3,2.6,0.3,2.6c-1.1,0-2.5,0-2.5,0c-0.5,0.1-0.6,0.6-0.6,0.6c0,3.1-0.1,6.3-0.1,9.4c0,0.8,0.6,1.5,1.3,1.8
		c0,3.7,0,7.2,0,10.8c-0.4,0.1-1,0.4-1,0.9c2.6,0,5.3,0,7.9,0H458.1z"/>
	<path fill="#484748" d="M471.3,658.7c2.6,0,5.3,0,7.9,0c0-0.6-0.6-0.8-1-0.9c0-3.6,0-7.2,0-10.8c0.7-0.3,1.3-1,1.3-1.8
		c0-3.1,0-6.3-0.1-9.4c0,0-0.1-0.4-0.6-0.6c0,0-1.4,0-2.5,0c0,0,0.1-1,0.3-2.6c0,0,0.3-1.9-1.5-1.9c-1.9,0-1.7,1.9-1.7,1.9
		c0.1,1.2,0.3,2.6,0.3,2.6c-1.1,0-2.5,0-2.5,0c-0.5,0.1-0.6,0.6-0.6,0.6c0,3.1-0.1,6.3-0.1,9.4c0,0.8,0.6,1.5,1.3,1.8
		c0,3.7,0,7.2,0,10.8c-0.4,0.1-1,0.4-1,0.9c2.6,0,5.3,0,7.9,0H471.3z"/>
	<path fill="#484748" d="M490.9,658.7c2.6,0,5.3,0,7.9,0c0-0.6-0.6-0.8-1-0.9c0-3.6,0-7.2,0-10.8c0.7-0.3,1.3-1,1.3-1.8
		c0-3.1-0.1-6.3-0.1-9.4c0,0-0.1-0.4-0.6-0.6c0,0-1.4,0-2.5,0c0,0,0.1-1,0.3-2.6c0,0,0.3-1.9-1.5-1.9c-1.9,0-1.7,1.9-1.7,1.9
		c0.1,1.2,0.3,2.6,0.3,2.6c-1.1,0-2.5,0-2.5,0c-0.5,0.1-0.6,0.6-0.6,0.6c0,3.1-0.1,6.3-0.1,9.4c0,0.8,0.6,1.5,1.3,1.8
		c0,3.7,0,7.2,0,10.8c-0.4,0.1-1,0.4-1,0.9c2.6,0,5.3,0,7.9,0H490.9z"/>
	<path fill="#484748" d="M504.1,658.7c2.6,0,5.3,0,7.9,0c0-0.6-0.6-0.8-1-0.9c0-3.6,0-7.2,0-10.8c0.7-0.3,1.3-1,1.3-1.8
		c0-3.1-0.1-6.3-0.1-9.4c0,0-0.1-0.4-0.6-0.6c0,0-1.4,0-2.5,0c0,0,0.1-1,0.3-2.6c0,0,0.3-1.9-1.5-1.9c-1.9,0-1.7,1.9-1.7,1.9
		c0.1,1.2,0.3,2.6,0.3,2.6c-1.1,0-2.5,0-2.5,0c-0.5,0.1-0.6,0.6-0.6,0.6c0,3.1-0.1,6.3-0.1,9.4c0,0.8,0.6,1.5,1.3,1.8
		c0,3.7,0,7.2,0,10.8c-0.4,0.1-1,0.4-1,0.9c2.6,0,5.3,0,7.9,0H504.1z"/>
	<path fill="#484748" d="M517.4,658.7c2.6,0,5.3,0,7.9,0c0-0.6-0.6-0.8-1-0.9c0-3.6,0-7.2,0-10.8c0.7-0.3,1.3-1,1.3-1.8
		c0-3.1-0.1-6.3-0.1-9.4c0,0-0.1-0.4-0.6-0.6c0,0-1.4,0-2.5,0c0,0,0.1-1,0.3-2.6c0,0,0.3-1.9-1.5-1.9c-1.9,0-1.7,1.9-1.7,1.9
		c0.1,1.2,0.3,2.6,0.3,2.6c-1.1,0-2.5,0-2.5,0c-0.5,0.1-0.6,0.6-0.6,0.6c0,3.1-0.1,6.3-0.1,9.4c0,0.8,0.6,1.5,1.3,1.8
		c0,3.7,0,7.2,0,10.8c-0.4,0.1-1,0.4-1,0.9c2.6,0,5.3,0,7.9,0H517.4z"/>
	<path fill="#484748" d="M530.6,658.7c2.6,0,5.3,0,7.9,0c0-0.6-0.6-0.8-1-0.9c0-3.6,0-7.2,0-10.8c0.7-0.3,1.3-1,1.3-1.8
		c0-3.1-0.1-6.3-0.1-9.4c0,0-0.1-0.4-0.6-0.6c0,0-1.4,0-2.5,0c0,0,0.1-1,0.3-2.6c0,0,0.3-1.9-1.5-1.9c-1.9,0-1.7,1.9-1.7,1.9
		c0.1,1.2,0.3,2.6,0.3,2.6c-1.1,0-2.5,0-2.5,0c-0.5,0.1-0.6,0.6-0.6,0.6c0,3.1-0.1,6.3-0.1,9.4c0,0.8,0.6,1.5,1.3,1.8
		c0,3.7,0,7.2,0,10.8c-0.4,0.1-1,0.4-1,0.9c2.6,0,5.3,0,7.9,0H530.6z"/>
</g>
<g>
	<path fill="#484748" d="M123.9,731.8c2.6,0,5.3,0,7.9,0c0-0.6-0.6-0.8-1-0.9c0-3.6,0-7.2,0-10.8c0.7-0.3,1.3-1,1.3-1.8
		c0-3.1-0.1-6.3-0.1-9.4c0,0-0.1-0.4-0.6-0.6c0,0-1.4,0-2.5,0c0,0,0.1-1,0.3-2.6c0,0,0.3-1.9-1.5-1.9c-1.9,0-1.7,1.9-1.7,1.9
		c0.1,1.2,0.3,2.6,0.3,2.6c-1.1,0-2.5,0-2.5,0c-0.5,0.1-0.6,0.6-0.6,0.6c0,3.1-0.1,6.3-0.1,9.4c0,0.8,0.6,1.5,1.3,1.8
		c0,3.7,0,7.2,0,10.8c-0.4,0.1-1,0.4-1,0.9c2.6,0,5.3,0,7.9,0H123.9z"/>
	<path fill="#484748" d="M137.1,731.8c2.6,0,5.3,0,7.9,0c0-0.6-0.6-0.8-1-0.9c0-3.6,0-7.2,0-10.8c0.7-0.3,1.3-1,1.3-1.8
		c0-3.1-0.1-6.3-0.1-9.4c0,0-0.1-0.4-0.6-0.6c0,0-1.4,0-2.5,0c0,0,0.1-1,0.3-2.6c0,0,0.3-1.9-1.5-1.9c-1.9,0-1.7,1.9-1.7,1.9
		c0.1,1.2,0.3,2.6,0.3,2.6c-1.1,0-2.5,0-2.5,0c-0.5,0.1-0.6,0.6-0.6,0.6c0,3.1-0.1,6.3-0.1,9.4c0,0.8,0.6,1.5,1.3,1.8
		c0,3.7,0,7.2,0,10.8c-0.4,0.1-1,0.4-1,0.9c2.6,0,5.3,0,7.9,0H137.1z"/>
	<path fill="#484748" d="M150.4,731.8c2.6,0,5.3,0,7.9,0c0-0.6-0.6-0.8-1-0.9c0-3.6,0-7.2,0-10.8c0.7-0.3,1.3-1,1.3-1.8
		c0-3.1-0.1-6.3-0.1-9.4c0,0-0.1-0.4-0.6-0.6c0,0-1.4,0-2.5,0c0,0,0.1-1,0.3-2.6c0,0,0.3-1.9-1.5-1.9c-1.9,0-1.7,1.9-1.7,1.9
		c0.1,1.2,0.3,2.6,0.3,2.6c-1.1,0-2.5,0-2.5,0c-0.5,0.1-0.6,0.6-0.6,0.6c0,3.1-0.1,6.3-0.1,9.4c0,0.8,0.6,1.5,1.3,1.8
		c0,3.7,0,7.2,0,10.8c-0.4,0.1-1,0.4-1,0.9c2.6,0,5.3,0,7.9,0H150.4z"/>
	<path fill="#484748" d="M163.6,731.8c2.6,0,5.3,0,7.9,0c0-0.6-0.6-0.8-1-0.9c0-3.6,0-7.2,0-10.8c0.7-0.3,1.3-1,1.3-1.8
		c0-3.1,0-6.3-0.1-9.4c0,0-0.1-0.4-0.6-0.6c0,0-1.4,0-2.5,0c0,0,0.1-1,0.3-2.6c0,0,0.3-1.9-1.5-1.9c-1.9,0-1.7,1.9-1.7,1.9
		c0.1,1.2,0.3,2.6,0.3,2.6c-1.1,0-2.5,0-2.5,0c-0.5,0.1-0.6,0.6-0.6,0.6c0,3.1-0.1,6.3-0.1,9.4c0,0.8,0.6,1.5,1.3,1.8
		c0,3.7,0,7.2,0,10.8c-0.4,0.1-1,0.4-1,0.9c2.6,0,5.3,0,7.9,0H163.6z"/>
	<path fill="#484748" d="M176.8,731.8c2.6,0,5.3,0,7.9,0c0-0.6-0.6-0.8-1-0.9c0-3.6,0-7.2,0-10.8c0.7-0.3,1.3-1,1.3-1.8
		c0-3.1-0.1-6.3-0.1-9.4c0,0-0.1-0.4-0.6-0.6c0,0-1.4,0-2.5,0c0,0,0.1-1,0.3-2.6c0,0,0.3-1.9-1.5-1.9c-1.9,0-1.7,1.9-1.7,1.9
		c0.1,1.2,0.3,2.6,0.3,2.6c-1.1,0-2.5,0-2.5,0c-0.5,0.1-0.6,0.6-0.6,0.6c0,3.1-0.1,6.3-0.1,9.4c0,0.8,0.6,1.5,1.3,1.8
		c0,3.7,0,7.2,0,10.8c-0.4,0.1-1,0.4-1,0.9c2.6,0,5.3,0,7.9,0H176.8z"/>
	<path fill="#484748" d="M196.5,731.8c2.6,0,5.3,0,7.9,0c0-0.6-0.6-0.8-1-0.9c0-3.6,0-7.2,0-10.8c0.7-0.3,1.3-1,1.3-1.8
		c0-3.1-0.1-6.3-0.1-9.4c0,0-0.1-0.4-0.6-0.6c0,0-1.4,0-2.5,0c0,0,0.1-1,0.3-2.6c0,0,0.3-1.9-1.5-1.9c-1.9,0-1.7,1.9-1.7,1.9
		c0.1,1.2,0.3,2.6,0.3,2.6c-1.1,0-2.5,0-2.5,0c-0.5,0.1-0.6,0.6-0.6,0.6c0,3.1-0.1,6.3-0.1,9.4c0,0.8,0.6,1.5,1.3,1.8
		c0,3.7,0,7.2,0,10.8c-0.4,0.1-1,0.4-1,0.9c2.6,0,5.3,0,7.9,0H196.5z"/>
	<path fill="#484748" d="M209.7,731.8c2.6,0,5.3,0,7.9,0c0-0.6-0.6-0.8-1-0.9c0-3.6,0-7.2,0-10.8c0.7-0.3,1.3-1,1.3-1.8
		c0-3.1-0.1-6.3-0.1-9.4c0,0-0.1-0.4-0.6-0.6c0,0-1.4,0-2.5,0c0,0,0.1-1,0.3-2.6c0,0,0.3-1.9-1.5-1.9c-1.9,0-1.7,1.9-1.7,1.9
		c0.1,1.2,0.3,2.6,0.3,2.6c-1.1,0-2.5,0-2.5,0c-0.5,0.1-0.6,0.6-0.6,0.6c0,3.1-0.1,6.3-0.1,9.4c0,0.8,0.6,1.5,1.3,1.8
		c0,3.7,0,7.2,0,10.8c-0.4,0.1-1,0.4-1,0.9c2.6,0,5.3,0,7.9,0H209.7z"/>
	<path fill="#484748" d="M222.9,731.8c2.6,0,5.3,0,7.9,0c0-0.6-0.6-0.8-1-0.9c0-3.6,0-7.2,0-10.8c0.7-0.3,1.3-1,1.3-1.8
		c0-3.1-0.1-6.3-0.1-9.4c0,0-0.1-0.4-0.6-0.6c0,0-1.4,0-2.5,0c0,0,0.1-1,0.3-2.6c0,0,0.3-1.9-1.5-1.9c-1.9,0-1.7,1.9-1.7,1.9
		c0.1,1.2,0.3,2.6,0.3,2.6c-1.1,0-2.5,0-2.5,0c-0.5,0.1-0.6,0.6-0.6,0.6c0,3.1-0.1,6.3-0.1,9.4c0,0.8,0.6,1.5,1.3,1.8
		c0,3.7,0,7.2,0,10.8c-0.4,0.1-1,0.4-1,0.9c2.6,0,5.3,0,7.9,0H222.9z"/>
	<path fill="#484748" d="M236.2,731.8c2.6,0,5.3,0,7.9,0c0-0.6-0.6-0.8-1-0.9c0-3.6,0-7.2,0-10.8c0.7-0.3,1.3-1,1.3-1.8
		c0-3.1-0.1-6.3-0.1-9.4c0,0-0.1-0.4-0.6-0.6c0,0-1.4,0-2.5,0c0,0,0.1-1,0.3-2.6c0,0,0.3-1.9-1.5-1.9c-1.9,0-1.7,1.9-1.7,1.9
		c0.1,1.2,0.3,2.6,0.3,2.6c-1.1,0-2.5,0-2.5,0c-0.5,0.1-0.6,0.6-0.6,0.6c0,3.1-0.1,6.3-0.1,9.4c0,0.8,0.6,1.5,1.3,1.8
		c0,3.7,0,7.2,0,10.8c-0.4,0.1-1,0.4-1,0.9c2.6,0,5.3,0,7.9,0H236.2z"/>
	<path fill="#484748" d="M249.4,731.8c2.6,0,5.3,0,7.9,0c0-0.6-0.6-0.8-1-0.9c0-3.6,0-7.2,0-10.8c0.7-0.3,1.3-1,1.3-1.8
		c0-3.1,0-6.3-0.1-9.4c0,0-0.1-0.4-0.6-0.6c0,0-1.4,0-2.5,0c0,0,0.1-1,0.3-2.6c0,0,0.3-1.9-1.5-1.9c-1.9,0-1.7,1.9-1.7,1.9
		c0.1,1.2,0.3,2.6,0.3,2.6c-1.1,0-2.5,0-2.5,0c-0.5,0.1-0.6,0.6-0.6,0.6c0,3.1-0.1,6.3-0.1,9.4c0,0.8,0.6,1.5,1.3,1.8
		c0,3.7,0,7.2,0,10.8c-0.4,0.1-1,0.4-1,0.9c2.6,0,5.3,0,7.9,0H249.4z"/>
	<path fill="#484748" d="M269.8,731.8c2.6,0,5.3,0,7.9,0c0-0.6-0.6-0.8-1-0.9c0-3.6,0-7.2,0-10.8c0.7-0.3,1.3-1,1.3-1.8
		c0-3.1-0.1-6.3-0.1-9.4c0,0-0.1-0.4-0.6-0.6c0,0-1.4,0-2.5,0c0,0,0.1-1,0.3-2.6c0,0,0.3-1.9-1.5-1.9c-1.9,0-1.7,1.9-1.7,1.9
		c0.1,1.2,0.3,2.6,0.3,2.6c-1.1,0-2.5,0-2.5,0c-0.5,0.1-0.6,0.6-0.6,0.6c0,3.1-0.1,6.3-0.1,9.4c0,0.8,0.6,1.5,1.3,1.8
		c0,3.7,0,7.2,0,10.8c-0.4,0.1-1,0.4-1,0.9c2.6,0,5.3,0,7.9,0H269.8z"/>
	<path fill="#484748" d="M283,731.8c2.6,0,5.3,0,7.9,0c0-0.6-0.6-0.8-1-0.9c0-3.6,0-7.2,0-10.8c0.7-0.3,1.3-1,1.3-1.8
		c0-3.1-0.1-6.3-0.1-9.4c0,0-0.1-0.4-0.6-0.6c0,0-1.4,0-2.5,0c0,0,0.1-1,0.3-2.6c0,0,0.3-1.9-1.5-1.9c-1.9,0-1.7,1.9-1.7,1.9
		c0.1,1.2,0.3,2.6,0.3,2.6c-1.1,0-2.5,0-2.5,0c-0.5,0.1-0.6,0.6-0.6,0.6c0,3.1-0.1,6.3-0.1,9.4c0,0.8,0.6,1.5,1.3,1.8
		c0,3.7,0,7.2,0,10.8c-0.4,0.1-1,0.4-1,0.9c2.6,0,5.3,0,7.9,0H283z"/>
	<path fill="#484748" d="M296.3,731.8c2.6,0,5.3,0,7.9,0c0-0.6-0.6-0.8-1-0.9c0-3.6,0-7.2,0-10.8c0.7-0.3,1.3-1,1.3-1.8
		c0-3.1-0.1-6.3-0.1-9.4c0,0-0.1-0.4-0.6-0.6c0,0-1.4,0-2.5,0c0,0,0.1-1,0.3-2.6c0,0,0.3-1.9-1.5-1.9c-1.9,0-1.7,1.9-1.7,1.9
		c0.1,1.2,0.3,2.6,0.3,2.6c-1.1,0-2.5,0-2.5,0c-0.5,0.1-0.6,0.6-0.6,0.6c0,3.1-0.1,6.3-0.1,9.4c0,0.8,0.6,1.5,1.3,1.8
		c0,3.7,0,7.2,0,10.8c-0.4,0.1-1,0.4-1,0.9c2.6,0,5.3,0,7.9,0H296.3z"/>
	<path fill="#484748" d="M309.5,731.8c2.6,0,5.3,0,7.9,0c0-0.6-0.6-0.8-1-0.9c0-3.6,0-7.2,0-10.8c0.7-0.3,1.3-1,1.3-1.8
		c0-3.1,0-6.3-0.1-9.4c0,0-0.1-0.4-0.6-0.6c0,0-1.4,0-2.5,0c0,0,0.1-1,0.3-2.6c0,0,0.3-1.9-1.5-1.9c-1.9,0-1.7,1.9-1.7,1.9
		c0.1,1.2,0.3,2.6,0.3,2.6c-1.1,0-2.5,0-2.5,0c-0.5,0.1-0.6,0.6-0.6,0.6c0,3.1-0.1,6.3-0.1,9.4c0,0.8,0.6,1.5,1.3,1.8
		c0,3.7,0,7.2,0,10.8c-0.4,0.1-1,0.4-1,0.9c2.6,0,5.3,0,7.9,0H309.5z"/>
	<path fill="#484748" d="M322.7,731.8c2.6,0,5.3,0,7.9,0c0-0.6-0.6-0.8-1-0.9c0-3.6,0-7.2,0-10.8c0.7-0.3,1.3-1,1.3-1.8
		c0-3.1-0.1-6.3-0.1-9.4c0,0-0.1-0.4-0.6-0.6c0,0-1.4,0-2.5,0c0,0,0.1-1,0.3-2.6c0,0,0.3-1.9-1.5-1.9c-1.9,0-1.7,1.9-1.7,1.9
		c0.1,1.2,0.3,2.6,0.3,2.6c-1.1,0-2.5,0-2.5,0c-0.5,0.1-0.6,0.6-0.6,0.6c0,3.1-0.1,6.3-0.1,9.4c0,0.8,0.6,1.5,1.3,1.8
		c0,3.7,0,7.2,0,10.8c-0.4,0.1-1,0.4-1,0.9c2.6,0,5.3,0,7.9,0H322.7z"/>
	<path fill="#484748" d="M345.1,731.8c2.6,0,5.3,0,7.9,0c0-0.6-0.6-0.8-1-0.9c0-3.6,0-7.2,0-10.8c0.7-0.3,1.3-1,1.3-1.8
		c0-3.1-0.1-6.3-0.1-9.4c0,0,0-0.4-0.6-0.6c0,0-1.4,0-2.5,0c0,0,0.1-1,0.3-2.6c0,0,0.3-1.9-1.5-1.9c-1.9,0-1.7,1.9-1.7,1.9
		c0.1,1.2,0.3,2.6,0.3,2.6c-1.1,0-2.5,0-2.5,0c-0.5,0.1-0.6,0.6-0.6,0.6c0,3.1-0.1,6.3-0.1,9.4c0,0.8,0.6,1.5,1.3,1.8
		c0,3.7,0,7.2,0,10.8c-0.4,0.1-1,0.4-1,0.9c2.6,0,5.3,0,7.9,0H345.1z"/>
	<path fill="#484748" d="M358.3,731.8c2.6,0,5.3,0,7.9,0c0-0.6-0.6-0.8-1-0.9c0-3.6,0-7.2,0-10.8c0.7-0.3,1.3-1,1.3-1.8
		c0-3.1-0.1-6.3-0.1-9.4c0,0-0.1-0.4-0.6-0.6c0,0-1.4,0-2.5,0c0,0,0.1-1,0.3-2.6c0,0,0.3-1.9-1.5-1.9c-1.9,0-1.7,1.9-1.7,1.9
		c0.1,1.2,0.3,2.6,0.3,2.6c-1.1,0-2.5,0-2.5,0c-0.5,0.1-0.6,0.6-0.6,0.6c0,3.1-0.1,6.3-0.1,9.4c0,0.8,0.6,1.5,1.3,1.8
		c0,3.7,0,7.2,0,10.8c-0.4,0.1-1,0.4-1,0.9c2.6,0,5.3,0,7.9,0H358.3z"/>
	<path fill="#484748" d="M371.6,731.8c2.6,0,5.3,0,7.9,0c0-0.6-0.6-0.8-1-0.9c0-3.6,0-7.2,0-10.8c0.7-0.3,1.3-1,1.3-1.8
		c0-3.1-0.1-6.3-0.1-9.4c0,0-0.1-0.4-0.6-0.6c0,0-1.4,0-2.5,0c0,0,0.1-1,0.3-2.6c0,0,0.3-1.9-1.5-1.9c-1.9,0-1.7,1.9-1.7,1.9
		c0.1,1.2,0.3,2.6,0.3,2.6c-1.1,0-2.5,0-2.5,0c-0.5,0.1-0.6,0.6-0.6,0.6c0,3.1-0.1,6.3-0.1,9.4c0,0.8,0.6,1.5,1.3,1.8
		c0,3.7,0,7.2,0,10.8c-0.4,0.1-1,0.4-1,0.9c2.6,0,5.3,0,7.9,0H371.6z"/>
	<path fill="#484748" d="M384.8,731.8c2.6,0,5.3,0,7.9,0c0-0.6-0.6-0.8-1-0.9c0-3.6,0-7.2,0-10.8c0.7-0.3,1.3-1,1.3-1.8
		c0-3.1,0-6.3-0.1-9.4c0,0,0-0.4-0.6-0.6c0,0-1.5,0-2.5,0c0,0,0.1-1,0.3-2.6c0,0,0.3-1.9-1.5-1.9c-1.9,0-1.7,1.9-1.7,1.9
		c0.1,1.2,0.3,2.6,0.3,2.6c-1.1,0-2.5,0-2.5,0c-0.5,0.1-0.6,0.6-0.6,0.6c0,3.1-0.1,6.3-0.1,9.4c0,0.8,0.6,1.5,1.3,1.8
		c0,3.7,0,7.2,0,10.8c-0.4,0.1-1,0.4-1,0.9c2.6,0,5.3,0,7.9,0H384.8z"/>
	<path fill="#484748" d="M398,731.8c2.6,0,5.3,0,7.9,0c0-0.6-0.6-0.8-1-0.9c0-3.6,0-7.2,0-10.8c0.7-0.3,1.3-1,1.3-1.8
		c0-3.1,0-6.3-0.1-9.4c0,0,0-0.4-0.6-0.6c0,0-1.4,0-2.5,0c0,0,0.1-1,0.3-2.6c0,0,0.3-1.9-1.5-1.9c-1.9,0-1.7,1.9-1.7,1.9
		c0.1,1.2,0.3,2.6,0.3,2.6c-1.1,0-2.5,0-2.5,0c-0.5,0.1-0.6,0.6-0.6,0.6c0,3.1-0.1,6.3-0.1,9.4c0,0.8,0.6,1.5,1.3,1.8
		c0,3.7,0,7.2,0,10.8c-0.4,0.1-1,0.4-1,0.9c2.6,0,5.3,0,7.9,0H398z"/>
	<path fill="#484748" d="M418.5,731.8c2.6,0,5.3,0,7.9,0c0-0.6-0.6-0.8-1-0.9c0-3.6,0-7.2,0-10.8c0.7-0.3,1.3-1,1.3-1.8
		c0-3.1-0.1-6.3-0.1-9.4c0,0-0.1-0.4-0.6-0.6c0,0-1.4,0-2.5,0c0,0,0.1-1,0.3-2.6c0,0,0.3-1.9-1.5-1.9c-1.9,0-1.7,1.9-1.7,1.9
		c0.1,1.2,0.3,2.6,0.3,2.6c-1.1,0-2.5,0-2.5,0c-0.5,0.1-0.6,0.6-0.6,0.6c0,3.1-0.1,6.3-0.1,9.4c0,0.8,0.6,1.5,1.3,1.8
		c0,3.7,0,7.2,0,10.8c-0.4,0.1-1,0.4-1,0.9c2.6,0,5.3,0,7.9,0H418.5z"/>
	<path fill="#484748" d="M431.7,731.8c2.6,0,5.3,0,7.9,0c0-0.6-0.6-0.8-1-0.9c0-3.6,0-7.2,0-10.8c0.7-0.3,1.3-1,1.3-1.8
		c0-3.1-0.1-6.3-0.1-9.4c0,0-0.1-0.4-0.6-0.6c0,0-1.4,0-2.5,0c0,0,0.1-1,0.3-2.6c0,0,0.3-1.9-1.5-1.9c-1.9,0-1.7,1.9-1.7,1.9
		c0.1,1.2,0.3,2.6,0.3,2.6c-1.1,0-2.5,0-2.5,0c-0.5,0.1-0.6,0.6-0.6,0.6c0,3.1-0.1,6.3-0.1,9.4c0,0.8,0.6,1.5,1.3,1.8
		c0,3.7,0,7.2,0,10.8c-0.4,0.1-1,0.4-1,0.9c2.6,0,5.3,0,7.9,0H431.7z"/>
	<path fill="#484748" d="M445,731.8c2.6,0,5.3,0,7.9,0c0-0.6-0.6-0.8-1-0.9c0-3.6,0-7.2,0-10.8c0.7-0.3,1.3-1,1.3-1.8
		c0-3.1-0.1-6.3-0.1-9.4c0,0-0.1-0.4-0.6-0.6c0,0-1.4,0-2.5,0c0,0,0.1-1,0.3-2.6c0,0,0.3-1.9-1.5-1.9c-1.9,0-1.7,1.9-1.7,1.9
		c0.1,1.2,0.3,2.6,0.3,2.6c-1.1,0-2.5,0-2.5,0c-0.5,0.1-0.6,0.6-0.6,0.6c0,3.1-0.1,6.3-0.1,9.4c0,0.8,0.6,1.5,1.3,1.8
		c0,3.7,0,7.2,0,10.8c-0.4,0.1-1,0.4-1,0.9c2.6,0,5.3,0,7.9,0H445z"/>
	<path fill="#484748" d="M458.2,731.8c2.6,0,5.3,0,7.9,0c0-0.6-0.6-0.8-1-0.9c0-3.6,0-7.2,0-10.8c0.7-0.3,1.3-1,1.3-1.8
		c0-3.1,0-6.3-0.1-9.4c0,0-0.1-0.4-0.6-0.6c0,0-1.4,0-2.5,0c0,0,0.1-1,0.3-2.6c0,0,0.3-1.9-1.5-1.9c-1.9,0-1.7,1.9-1.7,1.9
		c0.1,1.2,0.3,2.6,0.3,2.6c-1.1,0-2.5,0-2.5,0c-0.5,0.1-0.6,0.6-0.6,0.6c0,3.1-0.1,6.3-0.1,9.4c0,0.8,0.6,1.5,1.3,1.8
		c0,3.7,0,7.2,0,10.8c-0.4,0.1-1,0.4-1,0.9c2.6,0,5.3,0,7.9,0H458.2z"/>
	<path fill="#484748" d="M471.4,731.8c2.6,0,5.3,0,7.9,0c0-0.6-0.6-0.8-1-0.9c0-3.6,0-7.2,0-10.8c0.7-0.3,1.3-1,1.3-1.8
		c0-3.1-0.1-6.3-0.1-9.4c0,0-0.1-0.4-0.6-0.6c0,0-1.4,0-2.5,0c0,0,0.1-1,0.3-2.6c0,0,0.3-1.9-1.5-1.9c-1.9,0-1.7,1.9-1.7,1.9
		c0.1,1.2,0.3,2.6,0.3,2.6c-1.1,0-2.5,0-2.5,0c-0.5,0.1-0.6,0.6-0.6,0.6c0,3.1-0.1,6.3-0.1,9.4c0,0.8,0.6,1.5,1.3,1.8
		c0,3.7,0,7.2,0,10.8c-0.4,0.1-1,0.4-1,0.9c2.6,0,5.3,0,7.9,0H471.4z"/>
	<path fill="#484748" d="M493.8,731.8c2.6,0,5.3,0,7.9,0c0-0.6-0.6-0.8-1-0.9c0-3.6,0-7.2,0-10.8c0.7-0.3,1.3-1,1.3-1.8
		c0-3.1-0.1-6.3-0.1-9.4c0,0,0-0.4-0.6-0.6c0,0-1.4,0-2.5,0c0,0,0.1-1,0.3-2.6c0,0,0.3-1.9-1.5-1.9c-1.9,0-1.7,1.9-1.7,1.9
		c0.1,1.2,0.3,2.6,0.3,2.6c-1.1,0-2.5,0-2.5,0c-0.5,0.1-0.6,0.6-0.6,0.6c0,3.1-0.1,6.3-0.1,9.4c0,0.8,0.6,1.5,1.3,1.8
		c0,3.7,0,7.2,0,10.8c-0.4,0.1-1,0.4-1,0.9c2.6,0,5.3,0,7.9,0H493.8z"/>
	<path fill="#484748" d="M507,731.8c2.6,0,5.3,0,7.9,0c0-0.6-0.6-0.8-1-0.9c0-3.6,0-7.2,0-10.8c0.7-0.3,1.3-1,1.3-1.8
		c0-3.1-0.1-6.3-0.1-9.4c0,0-0.1-0.4-0.6-0.6c0,0-1.4,0-2.5,0c0,0,0.1-1,0.3-2.6c0,0,0.3-1.9-1.5-1.9c-1.9,0-1.7,1.9-1.7,1.9
		c0.1,1.2,0.3,2.6,0.3,2.6c-1.1,0-2.5,0-2.5,0c-0.5,0.1-0.6,0.6-0.6,0.6c0,3.1-0.1,6.3-0.1,9.4c0,0.8,0.6,1.5,1.3,1.8
		c0,3.7,0,7.2,0,10.8c-0.4,0.1-1,0.4-1,0.9c2.6,0,5.3,0,7.9,0H507z"/>
	<path fill="#484748" d="M520.3,731.8c2.6,0,5.3,0,7.9,0c0-0.6-0.6-0.8-1-0.9c0-3.6,0-7.2,0-10.8c0.7-0.3,1.3-1,1.3-1.8
		c0-3.1-0.1-6.3-0.1-9.4c0,0-0.1-0.4-0.6-0.6c0,0-1.4,0-2.5,0c0,0,0.1-1,0.3-2.6c0,0,0.3-1.9-1.5-1.9c-1.9,0-1.7,1.9-1.7,1.9
		c0.1,1.2,0.3,2.6,0.3,2.6c-1.1,0-2.5,0-2.5,0c-0.5,0.1-0.6,0.6-0.6,0.6c0,3.1-0.1,6.3-0.1,9.4c0,0.8,0.6,1.5,1.3,1.8
		c0,3.7,0,7.2,0,10.8c-0.4,0.1-1,0.4-1,0.9c2.6,0,5.3,0,7.9,0H520.3z"/>
	<path fill="#484748" d="M533.5,731.8c2.6,0,5.3,0,7.9,0c0-0.6-0.6-0.8-1-0.9c0-3.6,0-7.2,0-10.8c0.7-0.3,1.3-1,1.3-1.8
		c0-3.1,0-6.3-0.1-9.4c0,0,0-0.4-0.6-0.6c0,0-1.5,0-2.5,0c0,0,0.1-1,0.3-2.6c0,0,0.3-1.9-1.5-1.9c-1.9,0-1.7,1.9-1.7,1.9
		c0.1,1.2,0.3,2.6,0.3,2.6c-1.1,0-2.5,0-2.5,0c-0.5,0.1-0.6,0.6-0.6,0.6c0,3.1-0.1,6.3-0.1,9.4c0,0.8,0.6,1.5,1.3,1.8
		c0,3.7,0,7.2,0,10.8c-0.4,0.1-1,0.4-1,0.9c2.6,0,5.3,0,7.9,0H533.5z"/>
	<path fill="#484748" d="M546.7,731.8c2.6,0,5.3,0,7.9,0c0-0.6-0.6-0.8-1-0.9c0-3.6,0-7.2,0-10.8c0.7-0.3,1.3-1,1.3-1.8
		c0-3.1,0-6.3-0.1-9.4c0,0,0-0.4-0.6-0.6c0,0-1.4,0-2.5,0c0,0,0.1-1,0.3-2.6c0,0,0.3-1.9-1.5-1.9c-1.9,0-1.7,1.9-1.7,1.9
		c0.1,1.2,0.3,2.6,0.3,2.6c-1.1,0-2.5,0-2.5,0c-0.5,0.1-0.6,0.6-0.6,0.6c0,3.1-0.1,6.3-0.1,9.4c0,0.8,0.6,1.5,1.3,1.8
		c0,3.7,0,7.2,0,10.8c-0.4,0.1-1,0.4-1,0.9c2.6,0,5.3,0,7.9,0H546.7z"/>
	<path fill="#484748" d="M123.9,767.8c2.6,0,5.3,0,7.9,0c0-0.6-0.6-0.8-1-0.9c0-3.6,0-7.2,0-10.8c0.7-0.3,1.3-1,1.3-1.8
		c0-3.1-0.1-6.3-0.1-9.4c0,0-0.1-0.4-0.6-0.6c0,0-1.4,0-2.5,0c0,0,0.1-1,0.3-2.6c0,0,0.3-1.9-1.5-1.9c-1.9,0-1.7,1.9-1.7,1.9
		c0.1,1.2,0.3,2.6,0.3,2.6c-1.1,0-2.5,0-2.5,0c-0.5,0.1-0.6,0.6-0.6,0.6c0,3.1-0.1,6.3-0.1,9.4c0,0.8,0.6,1.5,1.3,1.8
		c0,3.7,0,7.2,0,10.8c-0.4,0.1-1,0.4-1,0.9c2.6,0,5.3,0,7.9,0H123.9z"/>
	<path fill="#484748" d="M137.1,767.8c2.6,0,5.3,0,7.9,0c0-0.6-0.6-0.8-1-0.9c0-3.6,0-7.2,0-10.8c0.7-0.3,1.3-1,1.3-1.8
		c0-3.1-0.1-6.3-0.1-9.4c0,0-0.1-0.4-0.6-0.6c0,0-1.4,0-2.5,0c0,0,0.1-1,0.3-2.6c0,0,0.3-1.9-1.5-1.9c-1.9,0-1.7,1.9-1.7,1.9
		c0.1,1.2,0.3,2.6,0.3,2.6c-1.1,0-2.5,0-2.5,0c-0.5,0.1-0.6,0.6-0.6,0.6c0,3.1-0.1,6.3-0.1,9.4c0,0.8,0.6,1.5,1.3,1.8
		c0,3.7,0,7.2,0,10.8c-0.4,0.1-1,0.4-1,0.9c2.6,0,5.3,0,7.9,0H137.1z"/>
	<path fill="#484748" d="M150.4,767.8c2.6,0,5.3,0,7.9,0c0-0.6-0.6-0.8-1-0.9c0-3.6,0-7.2,0-10.8c0.7-0.3,1.3-1,1.3-1.8
		c0-3.1-0.1-6.3-0.1-9.4c0,0-0.1-0.4-0.6-0.6c0,0-1.4,0-2.5,0c0,0,0.1-1,0.3-2.6c0,0,0.3-1.9-1.5-1.9c-1.9,0-1.7,1.9-1.7,1.9
		c0.1,1.2,0.3,2.6,0.3,2.6c-1.1,0-2.5,0-2.5,0c-0.5,0.1-0.6,0.6-0.6,0.6c0,3.1-0.1,6.3-0.1,9.4c0,0.8,0.6,1.5,1.3,1.8
		c0,3.7,0,7.2,0,10.8c-0.4,0.1-1,0.4-1,0.9c2.6,0,5.3,0,7.9,0H150.4z"/>
	<path fill="#484748" d="M163.6,767.8c2.6,0,5.3,0,7.9,0c0-0.6-0.6-0.8-1-0.9c0-3.6,0-7.2,0-10.8c0.7-0.3,1.3-1,1.3-1.8
		c0-3.1,0-6.3-0.1-9.4c0,0-0.1-0.4-0.6-0.6c0,0-1.4,0-2.5,0c0,0,0.1-1,0.3-2.6c0,0,0.3-1.9-1.5-1.9c-1.9,0-1.7,1.9-1.7,1.9
		c0.1,1.2,0.3,2.6,0.3,2.6c-1.1,0-2.5,0-2.5,0c-0.5,0.1-0.6,0.6-0.6,0.6c0,3.1-0.1,6.3-0.1,9.4c0,0.8,0.6,1.5,1.3,1.8
		c0,3.7,0,7.2,0,10.8c-0.4,0.1-1,0.4-1,0.9c2.6,0,5.3,0,7.9,0H163.6z"/>
	<path fill="#484748" d="M176.8,767.8c2.6,0,5.3,0,7.9,0c0-0.6-0.6-0.8-1-0.9c0-3.6,0-7.2,0-10.8c0.7-0.3,1.3-1,1.3-1.8
		c0-3.1-0.1-6.3-0.1-9.4c0,0-0.1-0.4-0.6-0.6c0,0-1.4,0-2.5,0c0,0,0.1-1,0.3-2.6c0,0,0.3-1.9-1.5-1.9c-1.9,0-1.7,1.9-1.7,1.9
		c0.1,1.2,0.3,2.6,0.3,2.6c-1.1,0-2.5,0-2.5,0c-0.5,0.1-0.6,0.6-0.6,0.6c0,3.1-0.1,6.3-0.1,9.4c0,0.8,0.6,1.5,1.3,1.8
		c0,3.7,0,7.2,0,10.8c-0.4,0.1-1,0.4-1,0.9c2.6,0,5.3,0,7.9,0H176.8z"/>
	<path fill="#484748" d="M196.5,767.8c2.6,0,5.3,0,7.9,0c0-0.6-0.6-0.8-1-0.9c0-3.6,0-7.2,0-10.8c0.7-0.3,1.3-1,1.3-1.8
		c0-3.1-0.1-6.3-0.1-9.4c0,0-0.1-0.4-0.6-0.6c0,0-1.4,0-2.5,0c0,0,0.1-1,0.3-2.6c0,0,0.3-1.9-1.5-1.9c-1.9,0-1.7,1.9-1.7,1.9
		c0.1,1.2,0.3,2.6,0.3,2.6c-1.1,0-2.5,0-2.5,0c-0.5,0.1-0.6,0.6-0.6,0.6c0,3.1-0.1,6.3-0.1,9.4c0,0.8,0.6,1.5,1.3,1.8
		c0,3.7,0,7.2,0,10.8c-0.4,0.1-1,0.4-1,0.9c2.6,0,5.3,0,7.9,0H196.5z"/>
	<path fill="#484748" d="M209.7,767.8c2.6,0,5.3,0,7.9,0c0-0.6-0.6-0.8-1-0.9c0-3.6,0-7.2,0-10.8c0.7-0.3,1.3-1,1.3-1.8
		c0-3.1-0.1-6.3-0.1-9.4c0,0-0.1-0.4-0.6-0.6c0,0-1.4,0-2.5,0c0,0,0.1-1,0.3-2.6c0,0,0.3-1.9-1.5-1.9c-1.9,0-1.7,1.9-1.7,1.9
		c0.1,1.2,0.3,2.6,0.3,2.6c-1.1,0-2.5,0-2.5,0c-0.5,0.1-0.6,0.6-0.6,0.6c0,3.1-0.1,6.3-0.1,9.4c0,0.8,0.6,1.5,1.3,1.8
		c0,3.7,0,7.2,0,10.8c-0.4,0.1-1,0.4-1,0.9c2.6,0,5.3,0,7.9,0H209.7z"/>
	<path fill="#484748" d="M222.9,767.8c2.6,0,5.3,0,7.9,0c0-0.6-0.6-0.8-1-0.9c0-3.6,0-7.2,0-10.8c0.7-0.3,1.3-1,1.3-1.8
		c0-3.1-0.1-6.3-0.1-9.4c0,0-0.1-0.4-0.6-0.6c0,0-1.4,0-2.5,0c0,0,0.1-1,0.3-2.6c0,0,0.3-1.9-1.5-1.9c-1.9,0-1.7,1.9-1.7,1.9
		c0.1,1.2,0.3,2.6,0.3,2.6c-1.1,0-2.5,0-2.5,0c-0.5,0.1-0.6,0.6-0.6,0.6c0,3.1-0.1,6.3-0.1,9.4c0,0.8,0.6,1.5,1.3,1.8
		c0,3.7,0,7.2,0,10.8c-0.4,0.1-1,0.4-1,0.9c2.6,0,5.3,0,7.9,0H222.9z"/>
	<path fill="#484748" d="M236.2,767.8c2.6,0,5.3,0,7.9,0c0-0.6-0.6-0.8-1-0.9c0-3.6,0-7.2,0-10.8c0.7-0.3,1.3-1,1.3-1.8
		c0-3.1-0.1-6.3-0.1-9.4c0,0-0.1-0.4-0.6-0.6c0,0-1.4,0-2.5,0c0,0,0.1-1,0.3-2.6c0,0,0.3-1.9-1.5-1.9c-1.9,0-1.7,1.9-1.7,1.9
		c0.1,1.2,0.3,2.6,0.3,2.6c-1.1,0-2.5,0-2.5,0c-0.5,0.1-0.6,0.6-0.6,0.6c0,3.1-0.1,6.3-0.1,9.4c0,0.8,0.6,1.5,1.3,1.8
		c0,3.7,0,7.2,0,10.8c-0.4,0.1-1,0.4-1,0.9c2.6,0,5.3,0,7.9,0H236.2z"/>
	<path fill="#484748" d="M249.4,767.8c2.6,0,5.3,0,7.9,0c0-0.6-0.6-0.8-1-0.9c0-3.6,0-7.2,0-10.8c0.7-0.3,1.3-1,1.3-1.8
		c0-3.1,0-6.3-0.1-9.4c0,0-0.1-0.4-0.6-0.6c0,0-1.4,0-2.5,0c0,0,0.1-1,0.3-2.6c0,0,0.3-1.9-1.5-1.9c-1.9,0-1.7,1.9-1.7,1.9
		c0.1,1.2,0.3,2.6,0.3,2.6c-1.1,0-2.5,0-2.5,0c-0.5,0.1-0.6,0.6-0.6,0.6c0,3.1-0.1,6.3-0.1,9.4c0,0.8,0.6,1.5,1.3,1.8
		c0,3.7,0,7.2,0,10.8c-0.4,0.1-1,0.4-1,0.9c2.6,0,5.3,0,7.9,0H249.4z"/>
	<path fill="#484748" d="M269.8,767.8c2.6,0,5.3,0,7.9,0c0-0.6-0.6-0.8-1-0.9c0-3.6,0-7.2,0-10.8c0.7-0.3,1.3-1,1.3-1.8
		c0-3.1-0.1-6.3-0.1-9.4c0,0-0.1-0.4-0.6-0.6c0,0-1.4,0-2.5,0c0,0,0.1-1,0.3-2.6c0,0,0.3-1.9-1.5-1.9c-1.9,0-1.7,1.9-1.7,1.9
		c0.1,1.2,0.3,2.6,0.3,2.6c-1.1,0-2.5,0-2.5,0c-0.5,0.1-0.6,0.6-0.6,0.6c0,3.1-0.1,6.3-0.1,9.4c0,0.8,0.6,1.5,1.3,1.8
		c0,3.7,0,7.2,0,10.8c-0.4,0.1-1,0.4-1,0.9c2.6,0,5.3,0,7.9,0H269.8z"/>
	<path fill="#484748" d="M283,767.8c2.6,0,5.3,0,7.9,0c0-0.6-0.6-0.8-1-0.9c0-3.6,0-7.2,0-10.8c0.7-0.3,1.3-1,1.3-1.8
		c0-3.1-0.1-6.3-0.1-9.4c0,0-0.1-0.4-0.6-0.6c0,0-1.4,0-2.5,0c0,0,0.1-1,0.3-2.6c0,0,0.3-1.9-1.5-1.9c-1.9,0-1.7,1.9-1.7,1.9
		c0.1,1.2,0.3,2.6,0.3,2.6c-1.1,0-2.5,0-2.5,0c-0.5,0.1-0.6,0.6-0.6,0.6c0,3.1-0.1,6.3-0.1,9.4c0,0.8,0.6,1.5,1.3,1.8
		c0,3.7,0,7.2,0,10.8c-0.4,0.1-1,0.4-1,0.9c2.6,0,5.3,0,7.9,0H283z"/>
	<path fill="#484748" d="M296.3,767.8c2.6,0,5.3,0,7.9,0c0-0.6-0.6-0.8-1-0.9c0-3.6,0-7.2,0-10.8c0.7-0.3,1.3-1,1.3-1.8
		c0-3.1-0.1-6.3-0.1-9.4c0,0-0.1-0.4-0.6-0.6c0,0-1.4,0-2.5,0c0,0,0.1-1,0.3-2.6c0,0,0.3-1.9-1.5-1.9c-1.9,0-1.7,1.9-1.7,1.9
		c0.1,1.2,0.3,2.6,0.3,2.6c-1.1,0-2.5,0-2.5,0c-0.5,0.1-0.6,0.6-0.6,0.6c0,3.1-0.1,6.3-0.1,9.4c0,0.8,0.6,1.5,1.3,1.8
		c0,3.7,0,7.2,0,10.8c-0.4,0.1-1,0.4-1,0.9c2.6,0,5.3,0,7.9,0H296.3z"/>
	<path fill="#484748" d="M309.5,767.8c2.6,0,5.3,0,7.9,0c0-0.6-0.6-0.8-1-0.9c0-3.6,0-7.2,0-10.8c0.7-0.3,1.3-1,1.3-1.8
		c0-3.1,0-6.3-0.1-9.4c0,0-0.1-0.4-0.6-0.6c0,0-1.4,0-2.5,0c0,0,0.1-1,0.3-2.6c0,0,0.3-1.9-1.5-1.9c-1.9,0-1.7,1.9-1.7,1.9
		c0.1,1.2,0.3,2.6,0.3,2.6c-1.1,0-2.5,0-2.5,0c-0.5,0.1-0.6,0.6-0.6,0.6c0,3.1-0.1,6.3-0.1,9.4c0,0.8,0.6,1.5,1.3,1.8
		c0,3.7,0,7.2,0,10.8c-0.4,0.1-1,0.4-1,0.9c2.6,0,5.3,0,7.9,0H309.5z"/>
	<path fill="#484748" d="M322.7,767.8c2.6,0,5.3,0,7.9,0c0-0.6-0.6-0.8-1-0.9c0-3.6,0-7.2,0-10.8c0.7-0.3,1.3-1,1.3-1.8
		c0-3.1-0.1-6.3-0.1-9.4c0,0-0.1-0.4-0.6-0.6c0,0-1.4,0-2.5,0c0,0,0.1-1,0.3-2.6c0,0,0.3-1.9-1.5-1.9c-1.9,0-1.7,1.9-1.7,1.9
		c0.1,1.2,0.3,2.6,0.3,2.6c-1.1,0-2.5,0-2.5,0c-0.5,0.1-0.6,0.6-0.6,0.6c0,3.1-0.1,6.3-0.1,9.4c0,0.8,0.6,1.5,1.3,1.8
		c0,3.7,0,7.2,0,10.8c-0.4,0.1-1,0.4-1,0.9c2.6,0,5.3,0,7.9,0H322.7z"/>
	<path fill="#484748" d="M345.1,767.8c2.6,0,5.3,0,7.9,0c0-0.6-0.6-0.8-1-0.9c0-3.6,0-7.2,0-10.8c0.7-0.3,1.3-1,1.3-1.8
		c0-3.1-0.1-6.3-0.1-9.4c0,0,0-0.4-0.6-0.6c0,0-1.4,0-2.5,0c0,0,0.1-1,0.3-2.6c0,0,0.3-1.9-1.5-1.9c-1.9,0-1.7,1.9-1.7,1.9
		c0.1,1.2,0.3,2.6,0.3,2.6c-1.1,0-2.5,0-2.5,0c-0.5,0.1-0.6,0.6-0.6,0.6c0,3.1-0.1,6.3-0.1,9.4c0,0.8,0.6,1.5,1.3,1.8
		c0,3.7,0,7.2,0,10.8c-0.4,0.1-1,0.4-1,0.9c2.6,0,5.3,0,7.9,0H345.1z"/>
	<path fill="#484748" d="M358.3,767.8c2.6,0,5.3,0,7.9,0c0-0.6-0.6-0.8-1-0.9c0-3.6,0-7.2,0-10.8c0.7-0.3,1.3-1,1.3-1.8
		c0-3.1-0.1-6.3-0.1-9.4c0,0-0.1-0.4-0.6-0.6c0,0-1.4,0-2.5,0c0,0,0.1-1,0.3-2.6c0,0,0.3-1.9-1.5-1.9c-1.9,0-1.7,1.9-1.7,1.9
		c0.1,1.2,0.3,2.6,0.3,2.6c-1.1,0-2.5,0-2.5,0c-0.5,0.1-0.6,0.6-0.6,0.6c0,3.1-0.1,6.3-0.1,9.4c0,0.8,0.6,1.5,1.3,1.8
		c0,3.7,0,7.2,0,10.8c-0.4,0.1-1,0.4-1,0.9c2.6,0,5.3,0,7.9,0H358.3z"/>
	<path fill="#484748" d="M371.6,767.8c2.6,0,5.3,0,7.9,0c0-0.6-0.6-0.8-1-0.9c0-3.6,0-7.2,0-10.8c0.7-0.3,1.3-1,1.3-1.8
		c0-3.1-0.1-6.3-0.1-9.4c0,0-0.1-0.4-0.6-0.6c0,0-1.4,0-2.5,0c0,0,0.1-1,0.3-2.6c0,0,0.3-1.9-1.5-1.9c-1.9,0-1.7,1.9-1.7,1.9
		c0.1,1.2,0.3,2.6,0.3,2.6c-1.1,0-2.5,0-2.5,0c-0.5,0.1-0.6,0.6-0.6,0.6c0,3.1-0.1,6.3-0.1,9.4c0,0.8,0.6,1.5,1.3,1.8
		c0,3.7,0,7.2,0,10.8c-0.4,0.1-1,0.4-1,0.9c2.6,0,5.3,0,7.9,0H371.6z"/>
	<path fill="#484748" d="M384.8,767.8c2.6,0,5.3,0,7.9,0c0-0.6-0.6-0.8-1-0.9c0-3.6,0-7.2,0-10.8c0.7-0.3,1.3-1,1.3-1.8
		c0-3.1,0-6.3-0.1-9.4c0,0,0-0.4-0.6-0.6c0,0-1.5,0-2.5,0c0,0,0.1-1,0.3-2.6c0,0,0.3-1.9-1.5-1.9c-1.9,0-1.7,1.9-1.7,1.9
		c0.1,1.2,0.3,2.6,0.3,2.6c-1.1,0-2.5,0-2.5,0c-0.5,0.1-0.6,0.6-0.6,0.6c0,3.1-0.1,6.3-0.1,9.4c0,0.8,0.6,1.5,1.3,1.8
		c0,3.7,0,7.2,0,10.8c-0.4,0.1-1,0.4-1,0.9c2.6,0,5.3,0,7.9,0H384.8z"/>
	<path fill="#484748" d="M398,767.8c2.6,0,5.3,0,7.9,0c0-0.6-0.6-0.8-1-0.9c0-3.6,0-7.2,0-10.8c0.7-0.3,1.3-1,1.3-1.8
		c0-3.1,0-6.3-0.1-9.4c0,0,0-0.4-0.6-0.6c0,0-1.4,0-2.5,0c0,0,0.1-1,0.3-2.6c0,0,0.3-1.9-1.5-1.9c-1.9,0-1.7,1.9-1.7,1.9
		c0.1,1.2,0.3,2.6,0.3,2.6c-1.1,0-2.5,0-2.5,0c-0.5,0.1-0.6,0.6-0.6,0.6c0,3.1-0.1,6.3-0.1,9.4c0,0.8,0.6,1.5,1.3,1.8
		c0,3.7,0,7.2,0,10.8c-0.4,0.1-1,0.4-1,0.9c2.6,0,5.3,0,7.9,0H398z"/>
	<path fill="#484748" d="M418.5,767.8c2.6,0,5.3,0,7.9,0c0-0.6-0.6-0.8-1-0.9c0-3.6,0-7.2,0-10.8c0.7-0.3,1.3-1,1.3-1.8
		c0-3.1-0.1-6.3-0.1-9.4c0,0-0.1-0.4-0.6-0.6c0,0-1.4,0-2.5,0c0,0,0.1-1,0.3-2.6c0,0,0.3-1.9-1.5-1.9c-1.9,0-1.7,1.9-1.7,1.9
		c0.1,1.2,0.3,2.6,0.3,2.6c-1.1,0-2.5,0-2.5,0c-0.5,0.1-0.6,0.6-0.6,0.6c0,3.1-0.1,6.3-0.1,9.4c0,0.8,0.6,1.5,1.3,1.8
		c0,3.7,0,7.2,0,10.8c-0.4,0.1-1,0.4-1,0.9c2.6,0,5.3,0,7.9,0H418.5z"/>
	<path fill="#484748" d="M431.7,767.8c2.6,0,5.3,0,7.9,0c0-0.6-0.6-0.8-1-0.9c0-3.6,0-7.2,0-10.8c0.7-0.3,1.3-1,1.3-1.8
		c0-3.1-0.1-6.3-0.1-9.4c0,0-0.1-0.4-0.6-0.6c0,0-1.4,0-2.5,0c0,0,0.1-1,0.3-2.6c0,0,0.3-1.9-1.5-1.9c-1.9,0-1.7,1.9-1.7,1.9
		c0.1,1.2,0.3,2.6,0.3,2.6c-1.1,0-2.5,0-2.5,0c-0.5,0.1-0.6,0.6-0.6,0.6c0,3.1-0.1,6.3-0.1,9.4c0,0.8,0.6,1.5,1.3,1.8
		c0,3.7,0,7.2,0,10.8c-0.4,0.1-1,0.4-1,0.9c2.6,0,5.3,0,7.9,0H431.7z"/>
	<path fill="#484748" d="M445,767.8c2.6,0,5.3,0,7.9,0c0-0.6-0.6-0.8-1-0.9c0-3.6,0-7.2,0-10.8c0.7-0.3,1.3-1,1.3-1.8
		c0-3.1-0.1-6.3-0.1-9.4c0,0-0.1-0.4-0.6-0.6c0,0-1.4,0-2.5,0c0,0,0.1-1,0.3-2.6c0,0,0.3-1.9-1.5-1.9c-1.9,0-1.7,1.9-1.7,1.9
		c0.1,1.2,0.3,2.6,0.3,2.6c-1.1,0-2.5,0-2.5,0c-0.5,0.1-0.6,0.6-0.6,0.6c0,3.1-0.1,6.3-0.1,9.4c0,0.8,0.6,1.5,1.3,1.8
		c0,3.7,0,7.2,0,10.8c-0.4,0.1-1,0.4-1,0.9c2.6,0,5.3,0,7.9,0H445z"/>
	<path fill="#484748" d="M458.2,767.8c2.6,0,5.3,0,7.9,0c0-0.6-0.6-0.8-1-0.9c0-3.6,0-7.2,0-10.8c0.7-0.3,1.3-1,1.3-1.8
		c0-3.1,0-6.3-0.1-9.4c0,0-0.1-0.4-0.6-0.6c0,0-1.4,0-2.5,0c0,0,0.1-1,0.3-2.6c0,0,0.3-1.9-1.5-1.9c-1.9,0-1.7,1.9-1.7,1.9
		c0.1,1.2,0.3,2.6,0.3,2.6c-1.1,0-2.5,0-2.5,0c-0.5,0.1-0.6,0.6-0.6,0.6c0,3.1-0.1,6.3-0.1,9.4c0,0.8,0.6,1.5,1.3,1.8
		c0,3.7,0,7.2,0,10.8c-0.4,0.1-1,0.4-1,0.9c2.6,0,5.3,0,7.9,0H458.2z"/>
	<path fill="#484748" d="M471.4,767.8c2.6,0,5.3,0,7.9,0c0-0.6-0.6-0.8-1-0.9c0-3.6,0-7.2,0-10.8c0.7-0.3,1.3-1,1.3-1.8
		c0-3.1-0.1-6.3-0.1-9.4c0,0-0.1-0.4-0.6-0.6c0,0-1.4,0-2.5,0c0,0,0.1-1,0.3-2.6c0,0,0.3-1.9-1.5-1.9c-1.9,0-1.7,1.9-1.7,1.9
		c0.1,1.2,0.3,2.6,0.3,2.6c-1.1,0-2.5,0-2.5,0c-0.5,0.1-0.6,0.6-0.6,0.6c0,3.1-0.1,6.3-0.1,9.4c0,0.8,0.6,1.5,1.3,1.8
		c0,3.7,0,7.2,0,10.8c-0.4,0.1-1,0.4-1,0.9c2.6,0,5.3,0,7.9,0H471.4z"/>
</g>
<g>
	<text transform="matrix(1 0 0 1 122.0469 627.3855)" fill="#64625A" font-family="Arial Narrow" font-weight="700" font-size="12.5">NON-ESSENTIAL EMPLOYEES</text>
</g>
<text transform="matrix(1 0 0 1 343.9746 627.1941)" fill="#64625A" font-family="Arial Narrow" font-weight="700" font-size="12.5">UNEMPLOYED / WELFARE INCOME PAYMENT</text>
<text transform="matrix(1 0 0 1 122.0469 698.3855)" fill="#64625A" font-family="Arial Narrow" font-weight="700" font-size="12.5">OTHERS (LOOKING AFTER HOME, STUDENTS, CHILDREN, RETIRED...)</text>
<path fill="none" stroke="#FFFFFF" stroke-width="2" stroke-miterlimit="10" stroke-dasharray="5,5" d="M417.1,604
	c0,0,0.7-136.5,0-201.8s-41.6-32.9-38.6-148.1"/>
<g>
	<polygon fill="#E0E1E1" points="282.5,218 282.5,218 307.4,227.2 307.4,241.3 290.3,241.3 290.3,227.8 274.7,227.8 274.7,241.3 
		257.6,241.3 257.6,227.2 	"/>
	<path fill="#E0E1E1" d="M312.1,239.7v-11.3h18v2.7l3.1,0.1c0,0,0.6,0.2,0.6,0.6c0,0.4,0.1,2.7,0.1,2.7h1.7c0,0,0.5,0.1,0.5,0.4
		c0,0.4,0,4.8,0,4.8h-0.3l-21.6,0L312.1,239.7z"/>
	<circle fill="#E0E1E1" cx="315.7" cy="239.7" r="1.6"/>
	<circle fill="#E0E1E1" cx="331.5" cy="239.7" r="1.6"/>
	<polygon fill="#E0E1E1" points="228.4,218 228.4,218 253.3,227.2 253.3,241.3 236.2,241.3 236.2,227.8 220.7,227.8 220.7,241.3 
		203.5,241.3 203.5,227.2 	"/>
	<g>
		<path fill="#E0E1E1" d="M399.2,196.8c0,0.6,0,10.3,0,10.3l95.4,0l0-10.3L399.2,196.8z"/>
		<path fill="#E0E1E1" d="M399.2,208.4c0,0.6,0,12.6,0,12.6h95.4l0-12.6L399.2,208.4z"/>
		<path fill="#E0E1E1" d="M399.2,222.1c0,1.1,0,19.1,0,19.1l95.4,0l0-19.1L399.2,222.1z"/>
		<path fill="#E0E1E1" d="M494.5,222.2c0,0.2,0,3,0,3l29.9,0l0-3H494.5z"/>
		<path fill="#E0E1E1" d="M521.1,225.1c0,1,0,15.9,0,15.9l0.8,0v-15.9L521.1,225.1z"/>
	</g>
	<rect x="120.5" y="241.4" fill="#E0E1E1" width="544.2" height="18.8"/>
</g>
<rect x="122.1" y="524.3" fill="#E0E1E1" width="541.5" height="18.8"/>
<line fill="none" stroke="#151415" stroke-width="2" stroke-miterlimit="10" stroke-dasharray="5,5" x1="0" y1="574" x2="750" y2="574"/>
<g>
	<text transform="matrix(1 0 0 1 64.7139 565.9514)" fill="#3A3A3A" font-family="ArialNarrow" font-style="italic" font-size="12.5">frontline</text>
</g>
<rect x="414.2" y="540.9" fill="#E0E1E1" width="6.1" height="4.8"/>
</svg>
