<?xml version="1.0" encoding="utf-8"?>
<!-- Generator: Adobe Illustrator 18.0.0, SVG Export Plug-In . SVG Version: 6.00 Build 0)  -->
<!DOCTYPE svg PUBLIC "-//W3C//DTD SVG 1.1//EN" "http://www.w3.org/Graphics/SVG/1.1/DTD/svg11.dtd">
<svg version="1.1" id="Layer_1" xmlns="http://www.w3.org/2000/svg" xmlns:xlink="http://www.w3.org/1999/xlink" x="0px" y="0px"
	 viewBox="0 0 750 980.8" enable-background="new 0 0 750 980.8" xml:space="preserve">
<path fill="none" stroke="#E2E2E2" stroke-width="13" stroke-miterlimit="10" d="M390.8,517.6c0,0,0.8,194.2,0,272.5
	s-76.5,46.4-76.8,168.2"/>
<g>
	<g>
		<path fill="none" stroke="#FFFFFF" stroke-width="2" stroke-miterlimit="10" d="M390.8,517.6c0,0,0,0.9,0,2.5"/>
		<path fill="none" stroke="#FFFFFF" stroke-width="2" stroke-miterlimit="10" stroke-dasharray="4.9495,4.9495" d="M390.8,525
			c0.1,36.3,0.7,195.9,0,265.1c-0.8,77.2-74.4,47.2-76.8,163.2"/>
		<path fill="none" stroke="#FFFFFF" stroke-width="2" stroke-miterlimit="10" d="M314,955.8c0,0.8,0,1.7,0,2.5"/>
	</g>
</g>
<path fill="#E0E1E1" d="M51.7,514.2l-0.5-0.3c-0.1-0.1-1.8-1.3-3.6-2.8c-1.8,1.4-3.5,2.7-3.5,2.7l-0.4,0.4l-0.5-0.3
	c-1.6-1.2-2.9-2.2-3.6-2.8c-1.1,0.9-3.2,2.7-3.2,2.7l-0.4,0.4l-0.5-0.3c-0.1-0.1-1.8-1.3-3.6-2.8c-1.8,1.4-3.5,2.7-3.5,2.7l-0.4,0.4
	l-0.5-0.3c-1.6-1.2-2.9-2.2-3.6-2.8c-1.1,0.9-3.2,2.7-3.2,2.7l-0.4,0.4l-0.5-0.3c-0.1-0.1-1.8-1.3-3.6-2.8c-1.8,1.4-3.5,2.7-3.5,2.7
	l-0.4,0.4l-0.5-0.3c-1.6-1.2-2.9-2.2-3.6-2.8c-1.1,0.9-3.2,2.7-3.2,2.7l-0.4,0.4L4,513.8c-0.1-0.1-2.2-1.5-4-3.2l1-1.1
	c1.3,1.2,2.7,2.2,3.4,2.7c0.8-0.7,2.6-2.2,3.3-2.8l0.5-0.4l0.5,0.4c0,0,1.5,1.3,3.6,2.8c0.7-0.5,2.1-1.7,3.6-2.8l0.5-0.4l0.5,0.4
	c1.3,1.2,2.7,2.2,3.4,2.7c0.8-0.7,2.6-2.2,3.3-2.8l0.5-0.4l0.5,0.4c0,0,1.5,1.3,3.6,2.8c0.7-0.5,2.1-1.7,3.6-2.8l0.5-0.4l0.5,0.4
	c1.3,1.2,2.7,2.2,3.4,2.7c0.8-0.7,2.6-2.2,3.3-2.8l0.5-0.4l0.5,0.4c0,0,1.5,1.3,3.6,2.8c0.7-0.5,2.1-1.7,3.6-2.8l0.5-0.4l0.5,0.4
	c1.3,1.2,2.7,2.2,3.4,2.7c0.8-0.7,2.6-2.2,3.3-2.8l0.5-0.4l0.5,0.4c0,0,1.5,1.3,3.6,2.8c0.7-0.5,2.1-1.7,3.6-2.8l0.9,1.2
	c-2,1.6-4,3.1-4,3.1l-0.4,0.4l-0.5-0.3c-1.6-1.2-2.9-2.2-3.6-2.8c-1.1,0.9-3.2,2.7-3.2,2.7L51.7,514.2z"/>
<path fill="#E0E1E1" d="M735,520.9h-0.7c-18.5,0-669.4,0-678.9,0l0.5-1.2l0.6-1.1c0.4-0.8,10.1-18.8,24.4-20.2
	c0,0,647.1-0.1,653.5-0.1h0.7v0.7c0,0,0,14.9,0,21.1V520.9z"/>
<g>
	<polygon fill="#E0E1E1" points="514.1,498.2 519.7,467.5 519.7,456.5 518.6,456.5 518.6,454.2 529.7,454.2 529.7,456.4 
		528.5,456.4 528.5,467.6 534.3,498.2 532.1,498.2 527.5,469.8 520.8,469.9 516.3,498.2 	"/>
	<polygon fill="#E0E1E1" points="517.4,489.8 529.1,478.2 528.7,477.2 517.6,488.3 	"/>
	<polygon fill="#E0E1E1" points="530.9,489.7 519.3,478.1 519.5,477 530.7,488.2 	"/>
	<path fill="#E0E1E1" d="M158.3,491.4c0,4,0,7.2,0,7.2"/>
	<rect x="157.8" y="491.4" fill="#E0E1E1" width="1.1" height="7.2"/>
	<path fill="#E0E1E1" d="M160.6,491.4c0,4,0,7.2,0,7.2"/>
	<rect x="160.1" y="491.4" fill="#E0E1E1" width="1.1" height="7.2"/>
	<path fill="#E0E1E1" d="M162.8,491.4c0,4,0,7.2,0,7.2"/>
	<rect x="162.2" y="491.4" fill="#E0E1E1" width="1.1" height="7.2"/>
	<path fill="#E0E1E1" d="M165.1,491.4c0,4,0,7.2,0,7.2"/>
	<rect x="164.5" y="491.4" fill="#E0E1E1" width="1.1" height="7.2"/>
	<path fill="#E0E1E1" d="M167.3,491.4c0,4,0,7.2,0,7.2"/>
	<rect x="166.7" y="491.4" fill="#E0E1E1" width="1.1" height="7.2"/>
	<path fill="#E0E1E1" d="M169.6,491.4c0,4,0,7.2,0,7.2"/>
	<rect x="169" y="491.4" fill="#E0E1E1" width="1.1" height="7.2"/>
	<path fill="#E0E1E1" d="M171.7,491.4c0,4,0,7.2,0,7.2"/>
	<rect x="171.2" y="491.4" fill="#E0E1E1" width="1.1" height="7.2"/>
	<path fill="#E0E1E1" d="M174,491.4c0,4,0,7.2,0,7.2"/>
	<rect x="173.5" y="491.4" fill="#E0E1E1" width="1.1" height="7.2"/>
	<path fill="#E0E1E1" d="M176.2,491.4c0,4,0,7.2,0,7.2"/>
	<rect x="175.7" y="491.4" fill="#E0E1E1" width="1.1" height="7.2"/>
	<path fill="#E0E1E1" d="M178.5,491.4c0,4,0,7.2,0,7.2"/>
	<rect x="177.9" y="491.4" fill="#E0E1E1" width="1.1" height="7.2"/>
	<path fill="#E0E1E1" d="M180.7,491.4c0,4,0,7.2,0,7.2"/>
	<rect x="180.1" y="491.4" fill="#E0E1E1" width="1.1" height="7.2"/>
	<path fill="#E0E1E1" d="M183,491.4c0,4,0,7.2,0,7.2"/>
	<rect x="182.4" y="491.4" fill="#E0E1E1" width="1.1" height="7.2"/>
	<path fill="#E0E1E1" d="M185.2,491.4c0,4,0,7.2,0,7.2"/>
	<rect x="184.6" y="491.4" fill="#E0E1E1" width="1.1" height="7.2"/>
	<path fill="#E0E1E1" d="M187.4,491.4c0,4,0,7.2,0,7.2"/>
	<rect x="186.9" y="491.4" fill="#E0E1E1" width="1.1" height="7.2"/>
	<path fill="#E0E1E1" d="M189.6,491.4c0,4,0,7.2,0,7.2"/>
	<rect x="189.1" y="491.4" fill="#E0E1E1" width="1.1" height="7.2"/>
	<path fill="#E0E1E1" d="M191.9,491.4c0,4,0,7.2,0,7.2"/>
	<rect x="191.4" y="491.4" fill="#E0E1E1" width="1.1" height="7.2"/>
	<path fill="#E0E1E1" d="M196.4,491.4c0,4,0,7.2,0,7.2"/>
	<rect x="195.8" y="491.4" fill="#E0E1E1" width="1.1" height="7.2"/>
	<path fill="#E0E1E1" d="M198.6,491.4c0,4,0,7.2,0,7.2"/>
	<rect x="198.1" y="491.4" fill="#E0E1E1" width="1.1" height="7.2"/>
	<path fill="#E0E1E1" d="M200.8,491.4c0,4,0,7.2,0,7.2"/>
	<rect x="200.3" y="491.4" fill="#E0E1E1" width="1.1" height="7.2"/>
	<path fill="#E0E1E1" d="M203.1,491.4c0,4,0,7.2,0,7.2"/>
	<rect x="202.6" y="491.4" fill="#E0E1E1" width="1.1" height="7.2"/>
	<path fill="#E0E1E1" d="M205.3,491.4c0,4,0,7.2,0,7.2"/>
	<rect x="204.7" y="491.4" fill="#E0E1E1" width="1.1" height="7.2"/>
	<path fill="#E0E1E1" d="M207.6,491.4c0,4,0,7.2,0,7.2"/>
	<rect x="207" y="491.4" fill="#E0E1E1" width="1.1" height="7.2"/>
	<path fill="#E0E1E1" d="M209.8,491.4c0,4,0,7.2,0,7.2"/>
	<rect x="209.2" y="491.4" fill="#E0E1E1" width="1.1" height="7.2"/>
	<path fill="#E0E1E1" d="M212.1,491.4c0,4,0,7.2,0,7.2"/>
	<rect x="211.5" y="491.4" fill="#E0E1E1" width="1.1" height="7.2"/>
	<path fill="#E0E1E1" d="M214.2,491.4c0,4,0,7.2,0,7.2"/>
	<rect x="213.7" y="491.4" fill="#E0E1E1" width="1.1" height="7.2"/>
	<path fill="#E0E1E1" d="M216.5,491.4c0,4,0,7.2,0,7.2"/>
	<rect x="216" y="491.4" fill="#E0E1E1" width="1.1" height="7.2"/>
	<path fill="#E0E1E1" d="M218.7,491.4c0,4,0,7.2,0,7.2"/>
	<rect x="218.2" y="491.4" fill="#E0E1E1" width="1.1" height="7.2"/>
	<path fill="#E0E1E1" d="M221,491.4c0,4,0,7.2,0,7.2"/>
	<rect x="220.4" y="491.4" fill="#E0E1E1" width="1.1" height="7.2"/>
	<path fill="#E0E1E1" d="M223.2,491.4c0,4,0,7.2,0,7.2"/>
	<rect x="222.6" y="491.4" fill="#E0E1E1" width="1.1" height="7.2"/>
	<path fill="#E0E1E1" d="M225.5,491.4c0,4,0,7.2,0,7.2"/>
	<rect x="224.9" y="491.4" fill="#E0E1E1" width="1.1" height="7.2"/>
	<path fill="#E0E1E1" d="M227.7,491.4c0,4,0,7.2,0,7.2"/>
	<rect x="227.1" y="491.4" fill="#E0E1E1" width="1.1" height="7.2"/>
	<path fill="#E0E1E1" d="M229.9,491.4c0,4,0,7.2,0,7.2"/>
	<rect x="229.4" y="491.4" fill="#E0E1E1" width="1.1" height="7.2"/>
	<path fill="#E0E1E1" d="M470.2,491.4c0,4,0,7.2,0,7.2"/>
	<rect x="469.7" y="491.4" fill="#E0E1E1" width="1.1" height="7.2"/>
	<path fill="#E0E1E1" d="M472.5,491.4c0,4,0,7.2,0,7.2"/>
	<rect x="472" y="491.4" fill="#E0E1E1" width="1.1" height="7.2"/>
	<path fill="#E0E1E1" d="M474.7,491.4c0,4,0,7.2,0,7.2"/>
	<rect x="474.2" y="491.4" fill="#E0E1E1" width="1.1" height="7.2"/>
	<path fill="#E0E1E1" d="M477,491.4c0,4,0,7.2,0,7.2"/>
	<rect x="476.4" y="491.4" fill="#E0E1E1" width="1.1" height="7.2"/>
	<path fill="#E0E1E1" d="M479.2,491.4c0,4,0,7.2,0,7.2"/>
	<rect x="478.6" y="491.4" fill="#E0E1E1" width="1.1" height="7.2"/>
	<path fill="#E0E1E1" d="M481.5,491.4c0,4,0,7.2,0,7.2"/>
	<rect x="480.9" y="491.4" fill="#E0E1E1" width="1.1" height="7.2"/>
	<path fill="#E0E1E1" d="M483.7,491.4c0,4,0,7.2,0,7.2"/>
	<rect x="483.1" y="491.4" fill="#E0E1E1" width="1.1" height="7.2"/>
	<path fill="#E0E1E1" d="M485.9,491.4c0,4,0,7.2,0,7.2"/>
	<rect x="485.4" y="491.4" fill="#E0E1E1" width="1.1" height="7.2"/>
	<path fill="#E0E1E1" d="M488.1,491.4c0,4,0,7.2,0,7.2"/>
	<rect x="487.6" y="491.4" fill="#E0E1E1" width="1.1" height="7.2"/>
	<path fill="#E0E1E1" d="M490.4,491.4c0,4,0,7.2,0,7.2"/>
	<rect x="489.9" y="491.4" fill="#E0E1E1" width="1.1" height="7.2"/>
	<path fill="#E0E1E1" d="M492.6,491.4c0,4,0,7.2,0,7.2"/>
	<rect x="492" y="491.4" fill="#E0E1E1" width="1.1" height="7.2"/>
	<path fill="#E0E1E1" d="M494.9,491.4c0,4,0,7.2,0,7.2"/>
	<rect x="494.3" y="491.4" fill="#E0E1E1" width="1.1" height="7.2"/>
	<path fill="#E0E1E1" d="M497.1,491.4c0,4,0,7.2,0,7.2"/>
	<rect x="496.5" y="491.4" fill="#E0E1E1" width="1.1" height="7.2"/>
	<path fill="#E0E1E1" d="M499.4,491.4c0,4,0,7.2,0,7.2"/>
	<rect x="498.8" y="491.4" fill="#E0E1E1" width="1.1" height="7.2"/>
	<path fill="#E0E1E1" d="M501.5,491.4c0,4,0,7.2,0,7.2"/>
	<rect x="501" y="491.4" fill="#E0E1E1" width="1.1" height="7.2"/>
	<path fill="#E0E1E1" d="M503.8,491.4c0,4,0,7.2,0,7.2"/>
	<rect x="503.3" y="491.4" fill="#E0E1E1" width="1.1" height="7.2"/>
	<path fill="#E0E1E1" d="M352.8,491.4c0,4,0,7.2,0,7.2"/>
	<rect x="352.3" y="491.4" fill="#E0E1E1" width="1.1" height="7.2"/>
	<path fill="#E0E1E1" d="M355.1,491.4c0,4,0,7.2,0,7.2"/>
	<rect x="354.6" y="491.4" fill="#E0E1E1" width="1.1" height="7.2"/>
	<path fill="#E0E1E1" d="M357.3,491.4c0,4,0,7.2,0,7.2"/>
	<rect x="356.7" y="491.4" fill="#E0E1E1" width="1.1" height="7.2"/>
	<path fill="#E0E1E1" d="M359.6,491.4c0,4,0,7.2,0,7.2"/>
	<rect x="359" y="491.4" fill="#E0E1E1" width="1.1" height="7.2"/>
	<path fill="#E0E1E1" d="M361.8,491.4c0,4,0,7.2,0,7.2"/>
	<rect x="361.2" y="491.4" fill="#E0E1E1" width="1.1" height="7.2"/>
	<path fill="#E0E1E1" d="M364.1,491.4c0,4,0,7.2,0,7.2"/>
	<rect x="363.5" y="491.4" fill="#E0E1E1" width="1.1" height="7.2"/>
	<path fill="#E0E1E1" d="M366.2,491.4c0,4,0,7.2,0,7.2"/>
	<rect x="365.7" y="491.4" fill="#E0E1E1" width="1.1" height="7.2"/>
	<path fill="#E0E1E1" d="M368.5,491.4c0,4,0,7.2,0,7.2"/>
	<rect x="368" y="491.4" fill="#E0E1E1" width="1.1" height="7.2"/>
	<path fill="#E0E1E1" d="M370.7,491.4c0,4,0,7.2,0,7.2"/>
	<rect x="370.2" y="491.4" fill="#E0E1E1" width="1.1" height="7.2"/>
	<path fill="#E0E1E1" d="M373,491.4c0,4,0,7.2,0,7.2"/>
	<rect x="372.4" y="491.4" fill="#E0E1E1" width="1.1" height="7.2"/>
	<path fill="#E0E1E1" d="M375.2,491.4c0,4,0,7.2,0,7.2"/>
	<rect x="374.6" y="491.4" fill="#E0E1E1" width="1.1" height="7.2"/>
	<path fill="#E0E1E1" d="M377.5,491.4c0,4,0,7.2,0,7.2"/>
	<rect x="376.9" y="491.4" fill="#E0E1E1" width="1.1" height="7.2"/>
	<path fill="#E0E1E1" d="M379.7,491.4c0,4,0,7.2,0,7.2"/>
	<rect x="379.1" y="491.4" fill="#E0E1E1" width="1.1" height="7.2"/>
	<path fill="#E0E1E1" d="M381.9,491.4c0,4,0,7.2,0,7.2"/>
	<rect x="381.4" y="491.4" fill="#E0E1E1" width="1.1" height="7.2"/>
	<path fill="#E0E1E1" d="M384.1,491.4c0,4,0,7.2,0,7.2"/>
	<rect x="383.6" y="491.4" fill="#E0E1E1" width="1.1" height="7.2"/>
	<path fill="#E0E1E1" d="M386.4,491.4c0,4,0,7.2,0,7.2"/>
	<rect x="385.9" y="491.4" fill="#E0E1E1" width="1.1" height="7.2"/>
	<path fill="#E0E1E1" d="M311.6,495.9c0,4,0,2.8,0,2.8"/>
	<rect x="311" y="495.9" fill="#E0E1E1" width="1.1" height="2.9"/>
	<path fill="#E0E1E1" d="M313.9,495.9c0,4,0,2.8,0,2.8"/>
	<rect x="313.3" y="495.9" fill="#E0E1E1" width="1.1" height="2.9"/>
	<path fill="#E0E1E1" d="M316.1,495.9c0,4,0,2.8,0,2.8"/>
	<rect x="315.5" y="495.9" fill="#E0E1E1" width="1.1" height="2.9"/>
	<path fill="#E0E1E1" d="M318.3,495.9c0,4,0,2.8,0,2.8"/>
	<rect x="317.8" y="495.9" fill="#E0E1E1" width="1.1" height="2.9"/>
	<path fill="#E0E1E1" d="M320.5,495.9c0,4,0,2.8,0,2.8"/>
	<rect x="320" y="495.9" fill="#E0E1E1" width="1.1" height="2.9"/>
	<path fill="#E0E1E1" d="M322.8,495.9c0,4,0,2.8,0,2.8"/>
	<rect x="322.2" y="495.9" fill="#E0E1E1" width="1.1" height="2.9"/>
	<path fill="#E0E1E1" d="M325,495.9c0,4,0,2.8,0,2.8"/>
	<rect x="324.4" y="495.9" fill="#E0E1E1" width="1.1" height="2.9"/>
	<path fill="#E0E1E1" d="M327.3,495.9c0,4,0,2.8,0,2.8"/>
	<rect x="326.7" y="495.9" fill="#E0E1E1" width="1.1" height="2.9"/>
	<path fill="#E0E1E1" d="M329.5,495.9c0,4,0,2.8,0,2.8"/>
	<rect x="328.9" y="495.9" fill="#E0E1E1" width="1.1" height="2.9"/>
	<path fill="#E0E1E1" d="M331.7,495.9c0,4,0,2.8,0,2.8"/>
	<rect x="331.2" y="495.9" fill="#E0E1E1" width="1.1" height="2.9"/>
	<path fill="#E0E1E1" d="M333.9,495.9c0,4,0,2.8,0,2.8"/>
	<rect x="333.4" y="495.9" fill="#E0E1E1" width="1.1" height="2.9"/>
	<path fill="#E0E1E1" d="M336.2,495.9c0,4,0,2.8,0,2.8"/>
	<rect x="335.7" y="495.9" fill="#E0E1E1" width="1.1" height="2.9"/>
	<path fill="#E0E1E1" d="M338.4,495.9c0,4,0,2.8,0,2.8"/>
	<rect x="337.8" y="495.9" fill="#E0E1E1" width="1.1" height="2.9"/>
	<path fill="#E0E1E1" d="M340.7,495.9c0,4,0,2.8,0,2.8"/>
	<rect x="340.1" y="495.9" fill="#E0E1E1" width="1.1" height="2.9"/>
	<path fill="#E0E1E1" d="M342.9,495.9c0,4,0,2.8,0,2.8"/>
	<rect x="342.3" y="495.9" fill="#E0E1E1" width="1.1" height="2.9"/>
	<path fill="#E0E1E1" d="M345.2,495.9c0,4,0,2.8,0,2.8"/>
	<rect x="344.6" y="495.9" fill="#E0E1E1" width="1.1" height="2.9"/>
	<path fill="#E0E1E1" d="M243.9,498.6c0-3.6,0-8.2,0-8.2l4.4-3.4l4.4,3.4v8.3"/>
	<path fill="#E0E1E1" d="M294.2,498.7c0-3.6,0-8.2,0-8.2l4.4-3.4l4.4,3.4v8.3"/>
	<path fill="#E0E1E1" d="M253.9,489.2c2.3-2.2,3.4-3.4,3.4-3.4h6.7l3.4,3.4v9.4h-13.4V489.2z"/>
	<path fill="#E0E1E1" d="M269.6,471.3c4.4-3.4,4.4-3.4,4.4-3.4h1.1l4.5,3.4v14.6h6.7l3.4,3.3v9.4h-20.1V471.3z"/>
	<path fill="#E0E1E1" d="M399.4,498.6c0-3.6,0-8.2,0-8.2l4.4-3.4l4.4,3.4v8.3"/>
	<path fill="#E0E1E1" d="M449.7,498.6c0-3.6,0-8.2,0-8.2l4.4-3.4l4.4,3.4v8.3"/>
	<path fill="#E0E1E1" d="M409.4,489.2c2.3-2.2,3.4-3.4,3.4-3.4h6.7l3.4,3.4v9.4h-13.4V489.2z"/>
	<path fill="#E0E1E1" d="M426.3,471.3c4.4-3.4,4.4-3.4,4.4-3.4h1.1l4.5,3.4v14.6h6.7l3.4,3.3v9.4h-20.1V471.3z"/>
	<path fill="#E0E1E1" d="M542.6,491.4c0,4,0,7.2,0,7.2"/>
	<rect x="542.1" y="491.4" fill="#E0E1E1" width="1.1" height="7.2"/>
	<path fill="#E0E1E1" d="M544.9,491.4c0,4,0,7.2,0,7.2"/>
	<rect x="544.4" y="491.4" fill="#E0E1E1" width="1.1" height="7.2"/>
	<path fill="#E0E1E1" d="M547.1,491.4c0,4,0,7.2,0,7.2"/>
	<rect x="546.5" y="491.4" fill="#E0E1E1" width="1.1" height="7.2"/>
	<path fill="#E0E1E1" d="M549.4,491.4c0,4,0,7.2,0,7.2"/>
	<rect x="548.8" y="491.4" fill="#E0E1E1" width="1.1" height="7.2"/>
	<path fill="#E0E1E1" d="M551.6,491.4c0,4,0,7.2,0,7.2"/>
	<rect x="551" y="491.4" fill="#E0E1E1" width="1.1" height="7.2"/>
	<path fill="#E0E1E1" d="M553.9,491.4c0,4,0,7.2,0,7.2"/>
	<rect x="553.3" y="491.4" fill="#E0E1E1" width="1.1" height="7.2"/>
	<path fill="#E0E1E1" d="M556,491.4c0,4,0,7.2,0,7.2"/>
	<rect x="555.5" y="491.4" fill="#E0E1E1" width="1.1" height="7.2"/>
	<path fill="#E0E1E1" d="M558.3,491.4c0,4,0,7.2,0,7.2"/>
	<rect x="557.8" y="491.4" fill="#E0E1E1" width="1.1" height="7.2"/>
	<path fill="#E0E1E1" d="M560.5,491.4c0,4,0,7.2,0,7.2"/>
	<rect x="560" y="491.4" fill="#E0E1E1" width="1.1" height="7.2"/>
	<path fill="#E0E1E1" d="M562.8,491.4c0,4,0,7.2,0,7.2"/>
	<rect x="562.2" y="491.4" fill="#E0E1E1" width="1.1" height="7.2"/>
	<path fill="#E0E1E1" d="M565,491.4c0,4,0,7.2,0,7.2"/>
	<rect x="564.4" y="491.4" fill="#E0E1E1" width="1.1" height="7.2"/>
	<path fill="#E0E1E1" d="M567.3,491.4c0,4,0,7.2,0,7.2"/>
	<rect x="566.7" y="491.4" fill="#E0E1E1" width="1.1" height="7.2"/>
	<path fill="#E0E1E1" d="M569.5,491.4c0,4,0,7.2,0,7.2"/>
	<rect x="568.9" y="491.4" fill="#E0E1E1" width="1.1" height="7.2"/>
	<path fill="#E0E1E1" d="M571.7,491.4c0,4,0,7.2,0,7.2"/>
	<rect x="571.2" y="491.4" fill="#E0E1E1" width="1.1" height="7.2"/>
	<path fill="#E0E1E1" d="M573.9,491.4c0,4,0,7.2,0,7.2"/>
	<rect x="573.4" y="491.4" fill="#E0E1E1" width="1.1" height="7.2"/>
	<path fill="#E0E1E1" d="M576.2,491.4c0,4,0,7.2,0,7.2"/>
	<rect x="575.6" y="491.4" fill="#E0E1E1" width="1.1" height="7.2"/>
</g>
<polyline fill="#E0E1E1" points="394.3,943.8 397.9,943.8 399.1,893.5 402.2,893.5 403.4,943.8 406.2,943.8 406.1,959.5 
	336.8,959.5 336.8,930 343.2,934.6 343.2,930 349.5,934.6 349.5,930 356,934.6 356,930 362.3,934.6 362.3,930 368.7,934.6 
	368.7,930 376,934.6 376,930 383.3,934.6 383.3,930 390.7,934.6 394.3,934.6 394.3,943.8 "/>
<polyline fill="#E0E1E1" points="479.5,943.8 483.2,943.8 484.4,893.5 487.4,893.5 488.6,943.8 491.4,943.8 491.3,959.5 422,959.5 
	422,930 428.4,934.6 428.4,930 434.7,934.6 434.7,930 441.2,934.6 441.2,930 447.6,934.6 447.6,930 453.9,934.6 453.9,930 
	461.2,934.6 461.2,930 468.5,934.6 468.5,930 475.9,934.6 479.5,934.6 479.5,943.8 "/>
<text transform="matrix(1 0 0 1 82.8673 374.4379)" fill="#3A3A3A" font-family="Arial Narrow" font-size="12.5">Farm workers</text>
<text transform="matrix(1 0 0 1 240.149 374.4379)" fill="#3A3A3A" font-family="Arial Narrow" font-size="12.5">19,103€</text>
<text transform="matrix(1 0 0 1 82.8795 391.7202)" fill="#3A3A3A" font-family="Arial Narrow" font-size="12.5">Agricultural machinery drivers</text>
<text transform="matrix(1 0 0 1 240.149 391.7202)" fill="#3A3A3A" font-family="Arial Narrow" font-size="12.5">19,794€</text>
<text transform="matrix(1 0 0 1 82.8795 409.0014)" fill="#3A3A3A" font-family="Arial Narrow" font-size="12.5">Animal care services occupations</text>
<text transform="matrix(1 0 0 1 240.149 409.0014)" fill="#3A3A3A" font-family="Arial Narrow" font-size="12.5">20,883€</text>
<text transform="matrix(1 0 0 1 82.8673 426.2836)" fill="#3A3A3A" font-family="Arial Narrow" font-size="12.5">Farmers</text>
<text transform="matrix(1 0 0 1 240.149 426.2836)" fill="#3A3A3A" font-family="Arial Narrow" font-size="12.5">21,538€</text>
<text transform="matrix(1 0 0 1 82.8795 443.5659)" fill="#3A3A3A" font-family="Arial Narrow" font-size="12.5">Agricultural and fishing trades</text>
<text transform="matrix(1 0 0 1 240.149 443.5659)" fill="#3A3A3A" font-family="Arial Narrow" font-size="12.5">26,209€</text>
<path fill="#E0E1E1" d="M171.7,939.9h0.6v2.5h-1.2v17.5h-1.9v-17.5H168v-2.5h0.6v1.8h0.6v-2.5h1.9v2.5h0.6
	C171.7,941.8,171.7,940.4,171.7,939.9"/>
<polyline fill="#E0E1E1" points="199.5,943.8 203.2,943.8 204.4,907.9 207.5,907.9 208.7,943.8 211.4,943.8 211.4,959.5 
	181.7,959.5 181.7,934.6 199.5,934.6 199.5,943.8 "/>
<g>
	<text transform="matrix(1 0 0 1 82.8672 884.2026)" fill="#3A3A3A" font-family="Arial Narrow" font-size="12.5">Elementary process plant occupations</text>
</g>
<g>
	<text transform="matrix(1 0 0 1 260.4723 884.3227)" fill="#3A3A3A" font-family="Arial Narrow" font-size="12.5">27,188€</text>
</g>
<g>
	<text transform="matrix(1 0 0 1 82.8672 901.6059)" fill="#3A3A3A" font-family="Arial Narrow" font-size="12.5">Water and sewerage plant operatives</text>
</g>
<g>
	<text transform="matrix(1 0 0 1 260.4727 901.7856)" fill="#3A3A3A" font-family="Arial Narrow" font-size="12.5">40,330€</text>
</g>
<rect x="84.1" y="958.3" fill="#E0E1E1" width="648.6" height="22.5"/>
<path fill="#638F3D" d="M101.8,497.4c3.1,0,6.4,0,9.5,0c0-0.7-0.7-1-1.2-1.1c0-4.3,0-8.6,0-13c0.8-0.3,1.6-1.2,1.6-2.1
	c0-3.7-0.1-7.5-0.1-11.3c0,0-0.1-0.5-0.7-0.7c0,0-1.7,0-3,0c0,0,0.2-1.2,0.3-3.1c0,0,0.4-2.3-1.8-2.3c-2.2,0-2,2.3-2,2.3
	c0.1,1.4,0.3,3.1,0.3,3.1c-1.3,0-3,0-3,0c-0.6,0.2-0.7,0.7-0.7,0.7c0,3.8-0.1,7.6-0.1,11.3c0,1,0.7,1.8,1.6,2.1c0,4.4,0,8.7,0,13
	c-0.5,0.2-1.2,0.4-1.2,1.1c3.1,0,6.3,0,9.5,0H101.8z"/>
<path fill="#638F3D" d="M117.7,497.4c3.1,0,6.4,0,9.5,0c0-0.7-0.7-1-1.2-1.1c0-4.3,0-8.6,0-13c0.8-0.3,1.6-1.2,1.6-2.1
	c0-3.7-0.1-7.5-0.1-11.3c0,0-0.1-0.5-0.7-0.7c0,0-1.7,0-3,0c0,0,0.2-1.2,0.3-3.1c0,0,0.4-2.3-1.8-2.3c-2.2,0-2,2.3-2,2.3
	c0.1,1.4,0.3,3.1,0.3,3.1c-1.3,0-3,0-3,0c-0.6,0.2-0.7,0.7-0.7,0.7c0,3.8-0.1,7.6-0.1,11.3c0,1,0.7,1.8,1.6,2.1c0,4.4,0,8.7,0,13
	c-0.5,0.2-1.2,0.4-1.2,1.1c3.1,0,6.3,0,9.5,0H117.7z"/>
<path fill="#BD9C2F" d="M508.7,957.3c3.1,0,6.4,0,9.5,0c0-0.7-0.7-1-1.2-1.1c0-4.3,0-8.6,0-13c0.8-0.3,1.6-1.2,1.6-2.1
	c0-3.7-0.1-7.5-0.1-11.3c0,0-0.1-0.5-0.7-0.7c0,0-1.7,0-3,0c0,0,0.2-1.2,0.3-3.1c0,0,0.4-2.3-1.8-2.3c-2.2,0-2,2.3-2,2.3
	c0.1,1.4,0.3,3.1,0.3,3.1c-1.3,0-3,0-3,0c-0.6,0.2-0.7,0.7-0.7,0.7c0,3.8-0.1,7.6-0.1,11.3c0,1,0.7,1.8,1.6,2.1c0,4.4,0,8.7,0,13
	c-0.5,0.2-1.2,0.4-1.2,1.1c3.1,0,6.3,0,9.5,0H508.7z"/>
<path fill="#BD9C2F" d="M524.6,957.3c3.1,0,6.4,0,9.5,0c0-0.7-0.7-1-1.2-1.1c0-4.3,0-8.6,0-13c0.8-0.3,1.6-1.2,1.6-2.1
	c0-3.7-0.1-7.5-0.1-11.3c0,0-0.1-0.5-0.7-0.7c0,0-1.7,0-3,0c0,0,0.2-1.2,0.3-3.1c0,0,0.4-2.3-1.8-2.3c-2.2,0-2,2.3-2,2.3
	c0.1,1.4,0.3,3.1,0.3,3.1c-1.3,0-3,0-3,0c-0.6,0.2-0.7,0.7-0.7,0.7c0,3.8-0.1,7.6-0.1,11.3c0,1,0.7,1.8,1.6,2.1c0,4.4,0,8.7,0,13
	c-0.5,0.2-1.2,0.4-1.2,1.1c3.1,0,6.3,0,9.5,0H524.6z"/>
<path fill="#BD9C2F" d="M99.9,957.3c3.1,0,6.4,0,9.5,0c0-0.7-0.7-1-1.2-1.1c0-4.3,0-8.6,0-13c0.8-0.3,1.6-1.2,1.6-2.1
	c0-3.7-0.1-7.5-0.1-11.3c0,0-0.1-0.5-0.7-0.7c0,0-1.7,0-3,0c0,0,0.2-1.2,0.3-3.1c0,0,0.4-2.3-1.8-2.3c-2.2,0-2,2.3-2,2.3
	c0.1,1.4,0.3,3.1,0.3,3.1c-1.3,0-3,0-3,0c-0.6,0.2-0.7,0.7-0.7,0.7c0,3.8-0.1,7.6-0.1,11.3c0,1,0.7,1.8,1.6,2.1c0,4.4,0,8.7,0,13
	c-0.5,0.2-1.2,0.4-1.2,1.1c3.1,0,6.3,0,9.5,0H99.9z"/>
<text transform="matrix(1 0 0 1 82.8673 354.059)" fill="#638F3D" font-family="Arial Narrow" font-weight="700" font-size="16">AGRICULTURE</text>
<text transform="matrix(1 0 0 1 82.8672 863.8237)" fill="#BD9C2F" font-family="Arial Narrow" font-weight="700" font-size="16">ELECTRICITY, GAS, WATER</text>
<g>
	<text transform="matrix(1 0 0 1 495.8536 849.6342)" fill="#3A3A3A" font-family="Arial Narrow" font-size="12.5">Food and drink process operatives</text>
</g>
<g>
	<text transform="matrix(1 0 0 1 695.2452 849.6342)" fill="#3A3A3A" font-family="Arial Narrow" font-size="12.5">24,794€</text>
</g>
<g>
	<text transform="matrix(1 0 0 1 495.8653 866.8842)" fill="#3A3A3A" font-family="Arial Narrow" font-size="12.5">Assemblers</text>
</g>
<g>
	<text transform="matrix(1 0 0 1 695.2452 866.8842)" fill="#3A3A3A" font-family="Arial Narrow" font-size="12.5">19,794€</text>
</g>
<g>
	<text transform="matrix(1 0 0 1 495.8536 884.1323)" fill="#3A3A3A" font-family="Arial Narrow" font-size="12.5">Pharmacy and other dispensing assistants</text>
</g>
<g>
	<text transform="matrix(1 0 0 1 695.2452 884.1323)" fill="#3A3A3A" font-family="Arial Narrow" font-size="12.5">30,998€</text>
</g>
<g>
	<text transform="matrix(1 0 0 1 495.8536 901.7846)" fill="#3A3A3A" font-family="Arial Narrow" font-size="12.5">Chemical and related process operatives</text>
</g>
<g>
	<text transform="matrix(1 0 0 1 695.2452 901.7856)" fill="#3A3A3A" font-family="Arial Narrow" font-size="12.5">37,825€</text>
</g>
<text transform="matrix(1 0 0 1 495.8536 829.2553)" fill="#BD9C2F" font-family="Arial Narrow" font-weight="700" font-size="16">MANUFACTURING</text>
<g>
	<text transform="matrix(1 0 0 1 84.1133 52.6674)" fill="#3A3B3B" font-family="Arial Narrow" font-weight="700" font-size="22">A schematic representation of the Irish COVID-19 society</text>
</g>
<g>
	<text transform="matrix(1 0 0 1 84.1133 94.1596)" fill="#3A3B3B" font-family="Arial Narrow" font-size="16">Each figure represents around 50,000 people.</text>
</g>
<g>
	<text transform="matrix(1 0 0 1 84.1133 124.5283)"><tspan x="0" y="0" fill="#3A3B3B" font-family="Arial Narrow" font-size="16">Figures representing essential workers are in </tspan><tspan x="265.5" y="0" fill="#638E3D" font-family="Arial Narrow" font-weight="700" font-size="16">green</tspan><tspan x="301.2" y="0" fill="#3A3B3B" font-family="Arial Narrow" font-weight="700" font-size="16">,</tspan><tspan x="304.8" y="0" fill="#3A3B3B" font-family="Arial Narrow" font-size="16"> </tspan><tspan x="308.5" y="0" fill="#BC9B2F" font-family="Arial Narrow" font-weight="700" font-size="16">yellow</tspan><tspan x="348.6" y="0" fill="#BC9B2F" font-family="Arial Narrow" font-size="16"> </tspan><tspan x="352.3" y="0" fill="#3A3B3B" font-family="Arial Narrow" font-size="16">and </tspan><tspan x="377.8" y="0" fill="#DD4A4B" font-family="Arial Narrow" font-weight="700" font-size="16">red</tspan><tspan x="398.2" y="0" fill="#DD4A4B" font-family="Arial Narrow" font-size="16"> </tspan><tspan x="401.9" y="0" fill="#3A3B3B" font-family="Arial Narrow" font-size="16">(this number is highly estimated). </tspan><tspan x="0" y="19.2" fill="#3A3B3B" font-family="Arial Narrow" font-size="16">Median income of some of the key occupations is written near the figure. </tspan></text>
</g>
<g>
	<text transform="matrix(1 0 0 1 84.1133 181.6679)"><tspan x="0" y="0" fill="#3A3B3B" font-family="Arial Narrow" font-size="16">In the COVID-19 world, the top priorities are keeping the </tspan><tspan x="330.4" y="0" fill="#638E3D" font-family="Arial Narrow" font-weight="700" font-size="16">food supply chain</tspan><tspan x="442.7" y="0" fill="#3A3B3B" font-family="Arial Narrow" font-size="16"> and the </tspan><tspan x="493.8" y="0" fill="#DD4A4B" font-family="Arial Narrow" font-weight="700" font-size="16">healthcare system</tspan><tspan x="608.3" y="0" fill="#3A3B3B" font-family="Arial Narrow" font-weight="700" font-size="16"> </tspan><tspan x="0" y="19.2" fill="#3A3B3B" font-family="Arial Narrow" font-size="16">up and running. These two goals are supported by </tspan><tspan x="296.2" y="19.2" fill="#BC9B2F" font-family="Arial Narrow" font-weight="700" font-size="16">other essential services and industries</tspan><tspan x="538.3" y="19.2" fill="#3A3B3B" font-family="Arial Narrow" font-size="16">.  </tspan></text>
</g>
<g>
	<path fill="#E0E1E1" d="M345.3,669.5v-13.5h21.5v3.2l3.7,0.1c0,0,0.7,0.2,0.7,0.7c0,0.5,0.1,3.2,0.1,3.2h2c0,0,0.6,0.1,0.6,0.5
		c0,0.4,0,5.8,0,5.8h-0.4l-25.8,0L345.3,669.5z"/>
	<circle fill="#E0E1E1" cx="349.5" cy="669.5" r="1.9"/>
	<circle fill="#E0E1E1" cx="368.5" cy="669.5" r="1.9"/>
</g>
<g>
	<text transform="matrix(1 0 0 1 409.4327 645.9838)"><tspan x="0" y="0" fill="#3A3A3A" font-family="Arial Narrow" font-size="12.5">Farm products are transported to</tspan><tspan x="0" y="15" fill="#3A3A3A" font-family="Arial Narrow" font-size="12.5">factories, warehouses and retail</tspan><tspan x="0" y="30" fill="#3A3A3A" font-family="Arial Narrow" font-size="12.5">stores before finaly ariving to each</tspan><tspan x="0" y="45" fill="#3A3A3A" font-family="Arial Narrow" font-size="12.5">person in Ireland</tspan></text>
</g>
</svg>
